<mxfile host="65bd71144e" pages="4">
    <diagram id="UMS9nKY7Dt_vSzlsI9hF" name="use_case1">
        <mxGraphModel dx="816" dy="440" grid="1" gridSize="10" guides="1" tooltips="1" connect="1" arrows="1" fold="1" page="1" pageScale="1" pageWidth="850" pageHeight="1100" background="#18141D" math="0" shadow="0">
            <root>
                <mxCell id="0"/>
                <mxCell id="1" parent="0"/>
                <mxCell id="bJMHT8rVgH3jV2KobR5U-139" value="" style="shape=folder;fontStyle=1;tabWidth=200;tabHeight=30;tabPosition=left;html=1;boundedLbl=1;" parent="1" vertex="1">
                    <mxGeometry x="246.26" y="260" width="404.38" height="270" as="geometry"/>
                </mxCell>
                <mxCell id="E0ZFKpVbwkk2b9CQsdlB-33" style="edgeStyle=none;html=1;entryX=0;entryY=0.5;entryDx=0;entryDy=0;" parent="1" target="6" edge="1">
                    <mxGeometry relative="1" as="geometry">
                        <mxPoint x="100" y="340" as="sourcePoint"/>
                    </mxGeometry>
                </mxCell>
                <mxCell id="bJMHT8rVgH3jV2KobR5U-130" value="KTDI Administration" style="shape=umlActor;verticalLabelPosition=bottom;verticalAlign=top;html=1;fillColor=#e51400;fontColor=#ffffff;strokeColor=#B20000;" parent="1" vertex="1">
                    <mxGeometry x="70" y="310" width="30" height="60" as="geometry"/>
                </mxCell>
                <mxCell id="bJMHT8rVgH3jV2KobR5U-131" value="KTDI Staff" style="shape=umlActor;verticalLabelPosition=bottom;verticalAlign=top;html=1;fillColor=#e3c800;fontColor=#FFFFFF;strokeColor=#B09500;" parent="1" vertex="1">
                    <mxGeometry x="50" y="610" width="30" height="60" as="geometry"/>
                </mxCell>
                <mxCell id="bJMHT8rVgH3jV2KobR5U-132" value="Student" style="shape=umlActor;verticalLabelPosition=bottom;verticalAlign=top;html=1;fillColor=#1ba1e2;fontColor=#ffffff;strokeColor=#006EAF;" parent="1" vertex="1">
                    <mxGeometry x="770" y="570" width="30" height="60" as="geometry"/>
                </mxCell>
                <mxCell id="bJMHT8rVgH3jV2KobR5U-134" value="" style="shape=folder;fontStyle=1;tabWidth=174;tabHeight=30;tabPosition=left;html=1;boundedLbl=1;" parent="1" vertex="1">
                    <mxGeometry x="265.88" y="50" width="340" height="180" as="geometry"/>
                </mxCell>
                <mxCell id="bJMHT8rVgH3jV2KobR5U-136" value="" style="ellipse;whiteSpace=wrap;html=1;fillColor=none;" parent="1" vertex="1">
                    <mxGeometry x="377.76" y="90" width="120" height="50" as="geometry"/>
                </mxCell>
                <mxCell id="bJMHT8rVgH3jV2KobR5U-137" value="Authenication Subsystem" style="text;html=1;strokeColor=none;fillColor=none;align=center;verticalAlign=middle;whiteSpace=wrap;rounded=0;" parent="1" vertex="1">
                    <mxGeometry x="259.64" y="50" width="186" height="30" as="geometry"/>
                </mxCell>
                <mxCell id="bJMHT8rVgH3jV2KobR5U-140" value="Report &amp;amp; Analytic Subsystem" style="text;html=1;strokeColor=none;fillColor=none;align=center;verticalAlign=middle;whiteSpace=wrap;rounded=0;" parent="1" vertex="1">
                    <mxGeometry x="245.64" y="260" width="200" height="30" as="geometry"/>
                </mxCell>
                <mxCell id="bJMHT8rVgH3jV2KobR5U-141" value="" style="shape=folder;fontStyle=1;tabWidth=200;tabHeight=30;tabPosition=left;html=1;boundedLbl=1;" parent="1" vertex="1">
                    <mxGeometry x="198.60999999999999" y="810" width="506.55" height="270" as="geometry"/>
                </mxCell>
                <mxCell id="bJMHT8rVgH3jV2KobR5U-142" value="Room Management Subsystem" style="text;html=1;strokeColor=none;fillColor=none;align=center;verticalAlign=middle;whiteSpace=wrap;rounded=0;" parent="1" vertex="1">
                    <mxGeometry x="198.60999999999999" y="810" width="200" height="30" as="geometry"/>
                </mxCell>
                <mxCell id="bJMHT8rVgH3jV2KobR5U-143" value="" style="shape=folder;fontStyle=1;tabWidth=200;tabHeight=30;tabPosition=left;html=1;boundedLbl=1;" parent="1" vertex="1">
                    <mxGeometry x="236.88" y="570" width="430" height="200" as="geometry"/>
                </mxCell>
                <mxCell id="bJMHT8rVgH3jV2KobR5U-144" value="Payment Management Subsystem" style="text;html=1;strokeColor=none;fillColor=none;align=center;verticalAlign=middle;whiteSpace=wrap;rounded=0;" parent="1" vertex="1">
                    <mxGeometry x="236.88" y="570" width="200" height="30" as="geometry"/>
                </mxCell>
                <mxCell id="E0ZFKpVbwkk2b9CQsdlB-30" style="edgeStyle=none;html=1;entryX=0.5;entryY=0;entryDx=0;entryDy=0;" parent="1" target="bJMHT8rVgH3jV2KobR5U-150" edge="1">
                    <mxGeometry relative="1" as="geometry">
                        <mxPoint x="438" y="140" as="sourcePoint"/>
                    </mxGeometry>
                </mxCell>
                <mxCell id="bJMHT8rVgH3jV2KobR5U-146" value="User Sign in / Login" style="text;html=1;strokeColor=none;fillColor=none;align=center;verticalAlign=middle;whiteSpace=wrap;rounded=0;" parent="1" vertex="1">
                    <mxGeometry x="402.76" y="100" width="70" height="30" as="geometry"/>
                </mxCell>
                <mxCell id="bJMHT8rVgH3jV2KobR5U-150" value="" style="ellipse;whiteSpace=wrap;html=1;fillColor=none;movable=1;resizable=1;rotatable=1;deletable=1;editable=1;connectable=1;" parent="1" vertex="1">
                    <mxGeometry x="378.38" y="170" width="120" height="50" as="geometry"/>
                </mxCell>
                <mxCell id="bJMHT8rVgH3jV2KobR5U-151" value="Password" style="text;html=1;strokeColor=none;fillColor=none;align=center;verticalAlign=middle;whiteSpace=wrap;rounded=0;movable=1;resizable=1;rotatable=1;deletable=1;editable=1;connectable=1;" parent="1" vertex="1">
                    <mxGeometry x="402.76" y="180" width="70" height="30" as="geometry"/>
                </mxCell>
                <mxCell id="bJMHT8rVgH3jV2KobR5U-153" value="" style="edgeStyle=none;html=1;" parent="1" source="bJMHT8rVgH3jV2KobR5U-154" target="bJMHT8rVgH3jV2KobR5U-173" edge="1">
                    <mxGeometry relative="1" as="geometry"/>
                </mxCell>
                <mxCell id="bJMHT8rVgH3jV2KobR5U-154" value="Make payments" style="ellipse;whiteSpace=wrap;html=1;fillColor=none;" parent="1" vertex="1">
                    <mxGeometry x="518.76" y="610" width="120" height="50" as="geometry"/>
                </mxCell>
                <mxCell id="bJMHT8rVgH3jV2KobR5U-155" value="&amp;lt;&amp;lt;include&amp;gt;&amp;gt;" style="text;html=1;strokeColor=none;fillColor=none;align=center;verticalAlign=middle;whiteSpace=wrap;rounded=0;fontSize=11;rotation=0;" parent="1" vertex="1">
                    <mxGeometry x="454" y="140" width="60" height="30" as="geometry"/>
                </mxCell>
                <mxCell id="bJMHT8rVgH3jV2KobR5U-166" value="Room occupancy rate" style="ellipse;whiteSpace=wrap;html=1;fillColor=none;" parent="1" vertex="1">
                    <mxGeometry x="397.51" y="300" width="162.5" height="50" as="geometry"/>
                </mxCell>
                <mxCell id="bJMHT8rVgH3jV2KobR5U-167" value="" style="edgeStyle=none;html=1;exitX=1;exitY=0.5;exitDx=0;exitDy=0;" parent="1" source="bJMHT8rVgH3jV2KobR5U-187" target="bJMHT8rVgH3jV2KobR5U-171" edge="1">
                    <mxGeometry relative="1" as="geometry">
                        <mxPoint x="443.8707277427974" y="723.2886491524785" as="sourcePoint"/>
                    </mxGeometry>
                </mxCell>
                <mxCell id="bJMHT8rVgH3jV2KobR5U-169" value="Check in / out" style="ellipse;whiteSpace=wrap;html=1;" parent="1" vertex="1">
                    <mxGeometry x="309.23" y="950" width="107.51" height="45" as="geometry"/>
                </mxCell>
                <mxCell id="bJMHT8rVgH3jV2KobR5U-171" value="Payment receipts" style="ellipse;whiteSpace=wrap;html=1;fillColor=none;" parent="1" vertex="1">
                    <mxGeometry x="546.88" y="710" width="110" height="50" as="geometry"/>
                </mxCell>
                <mxCell id="bJMHT8rVgH3jV2KobR5U-173" value="Payment methods" style="ellipse;whiteSpace=wrap;html=1;fillColor=none;" parent="1" vertex="1">
                    <mxGeometry x="255" y="610" width="120" height="52.5" as="geometry"/>
                </mxCell>
                <mxCell id="bJMHT8rVgH3jV2KobR5U-174" value="Maintenance request / tracking" style="ellipse;whiteSpace=wrap;html=1;" parent="1" vertex="1">
                    <mxGeometry x="232.98999999999998" y="890" width="106.88" height="60" as="geometry"/>
                </mxCell>
                <mxCell id="bJMHT8rVgH3jV2KobR5U-175" value="College maintenance report" style="ellipse;whiteSpace=wrap;html=1;fillColor=none;" parent="1" vertex="1">
                    <mxGeometry x="391.27" y="400" width="163.75" height="50" as="geometry"/>
                </mxCell>
                <mxCell id="bJMHT8rVgH3jV2KobR5U-178" value="Payment history" style="ellipse;whiteSpace=wrap;html=1;fillColor=none;" parent="1" vertex="1">
                    <mxGeometry x="255" y="710" width="105" height="50" as="geometry"/>
                </mxCell>
                <mxCell id="bJMHT8rVgH3jV2KobR5U-182" value="Revenue report" style="ellipse;whiteSpace=wrap;html=1;fillColor=none;" parent="1" vertex="1">
                    <mxGeometry x="510.64" y="350" width="120" height="50" as="geometry"/>
                </mxCell>
                <mxCell id="13" style="edgeStyle=none;html=1;entryX=1;entryY=0;entryDx=0;entryDy=0;exitX=0;exitY=0.5;exitDx=0;exitDy=0;" parent="1" source="bJMHT8rVgH3jV2KobR5U-187" target="bJMHT8rVgH3jV2KobR5U-178" edge="1">
                    <mxGeometry relative="1" as="geometry"/>
                </mxCell>
                <mxCell id="bJMHT8rVgH3jV2KobR5U-187" value="Payment information" style="ellipse;whiteSpace=wrap;html=1;fillColor=none;" parent="1" vertex="1">
                    <mxGeometry x="385.01" y="670" width="133.75" height="52.5" as="geometry"/>
                </mxCell>
                <mxCell id="7" style="edgeStyle=none;html=1;entryX=0;entryY=0.5;entryDx=0;entryDy=0;" parent="1" source="6" target="bJMHT8rVgH3jV2KobR5U-166" edge="1">
                    <mxGeometry relative="1" as="geometry"/>
                </mxCell>
                <mxCell id="8" style="edgeStyle=none;html=1;entryX=0;entryY=0.5;entryDx=0;entryDy=0;" parent="1" source="6" target="bJMHT8rVgH3jV2KobR5U-175" edge="1">
                    <mxGeometry relative="1" as="geometry"/>
                </mxCell>
                <mxCell id="9" style="edgeStyle=none;html=1;entryX=0;entryY=0.5;entryDx=0;entryDy=0;" parent="1" source="6" target="bJMHT8rVgH3jV2KobR5U-182" edge="1">
                    <mxGeometry relative="1" as="geometry"/>
                </mxCell>
                <mxCell id="E0ZFKpVbwkk2b9CQsdlB-41" style="edgeStyle=none;html=1;entryX=0;entryY=0;entryDx=0;entryDy=0;" parent="1" source="6" target="E0ZFKpVbwkk2b9CQsdlB-40" edge="1">
                    <mxGeometry relative="1" as="geometry"/>
                </mxCell>
                <mxCell id="6" value="Overview reports" style="ellipse;whiteSpace=wrap;html=1;" parent="1" vertex="1">
                    <mxGeometry x="262.76" y="350" width="107.5" height="45" as="geometry"/>
                </mxCell>
                <mxCell id="10" value="&amp;lt;&amp;lt;include&amp;gt;&amp;gt;" style="text;html=1;strokeColor=none;fillColor=none;align=center;verticalAlign=middle;whiteSpace=wrap;rounded=0;fontSize=11;rotation=-35;" parent="1" vertex="1">
                    <mxGeometry x="330.26" y="316" width="60" height="30" as="geometry"/>
                </mxCell>
                <mxCell id="11" value="&amp;lt;&amp;lt;include&amp;gt;&amp;gt;" style="text;html=1;strokeColor=none;fillColor=none;align=center;verticalAlign=middle;whiteSpace=wrap;rounded=0;fontSize=11;rotation=0;" parent="1" vertex="1">
                    <mxGeometry x="391.27" y="350" width="60" height="30" as="geometry"/>
                </mxCell>
                <mxCell id="12" value="&amp;lt;&amp;lt;include&amp;gt;&amp;gt;" style="text;html=1;strokeColor=none;fillColor=none;align=center;verticalAlign=middle;whiteSpace=wrap;rounded=0;fontSize=11;rotation=35;" parent="1" vertex="1">
                    <mxGeometry x="331.27" y="400" width="60" height="30" as="geometry"/>
                </mxCell>
                <mxCell id="15" value="&amp;lt;&amp;lt;include&amp;gt;&amp;gt;" style="text;html=1;strokeColor=none;fillColor=none;align=center;verticalAlign=middle;whiteSpace=wrap;rounded=0;fontSize=11;rotation=-30;" parent="1" vertex="1">
                    <mxGeometry x="334.88" y="680" width="60" height="30" as="geometry"/>
                </mxCell>
                <mxCell id="16" value="&amp;lt;&amp;lt;include&amp;gt;&amp;gt;" style="text;html=1;strokeColor=none;fillColor=none;align=center;verticalAlign=middle;whiteSpace=wrap;rounded=0;fontSize=11;rotation=25;" parent="1" vertex="1">
                    <mxGeometry x="513.76" y="681" width="60" height="30" as="geometry"/>
                </mxCell>
                <mxCell id="20" style="edgeStyle=none;html=1;entryX=0.5;entryY=0;entryDx=0;entryDy=0;" parent="1" target="bJMHT8rVgH3jV2KobR5U-174" edge="1">
                    <mxGeometry relative="1" as="geometry">
                        <mxPoint x="351.74" y="870" as="sourcePoint"/>
                    </mxGeometry>
                </mxCell>
                <mxCell id="21" style="edgeStyle=none;html=1;entryX=0.5;entryY=0;entryDx=0;entryDy=0;" parent="1" source="17" target="bJMHT8rVgH3jV2KobR5U-169" edge="1">
                    <mxGeometry relative="1" as="geometry"/>
                </mxCell>
                <mxCell id="22" style="edgeStyle=none;html=1;entryX=0.5;entryY=0;entryDx=0;entryDy=0;" parent="1" source="17" target="19" edge="1">
                    <mxGeometry relative="1" as="geometry"/>
                </mxCell>
                <mxCell id="17" value="Room control" style="ellipse;whiteSpace=wrap;html=1;" parent="1" vertex="1">
                    <mxGeometry x="351.75" y="850" width="110" height="40" as="geometry"/>
                </mxCell>
                <mxCell id="18" value="Room changing / cancellation" style="ellipse;whiteSpace=wrap;html=1;" parent="1" vertex="1">
                    <mxGeometry x="473.62" y="880" width="113.12" height="60" as="geometry"/>
                </mxCell>
                <mxCell id="19" value="Electrical appliances registration" style="ellipse;whiteSpace=wrap;html=1;" parent="1" vertex="1">
                    <mxGeometry x="426.74" y="950" width="140" height="50" as="geometry"/>
                </mxCell>
                <mxCell id="23" style="edgeStyle=none;html=1;entryX=0.5;entryY=0;entryDx=0;entryDy=0;exitX=1;exitY=0.5;exitDx=0;exitDy=0;" parent="1" source="17" target="18" edge="1">
                    <mxGeometry relative="1" as="geometry"/>
                </mxCell>
                <mxCell id="24" value="&amp;lt;&amp;lt;include&amp;gt;&amp;gt;" style="text;html=1;strokeColor=none;fillColor=none;align=center;verticalAlign=middle;whiteSpace=wrap;rounded=0;fontSize=11;rotation=45;" parent="1" vertex="1">
                    <mxGeometry x="416.74" y="905" width="60" height="30" as="geometry"/>
                </mxCell>
                <mxCell id="25" value="&amp;lt;&amp;lt;include&amp;gt;&amp;gt;" style="text;html=1;strokeColor=none;fillColor=none;align=center;verticalAlign=middle;whiteSpace=wrap;rounded=0;fontSize=11;rotation=5;" parent="1" vertex="1">
                    <mxGeometry x="466.74" y="850" width="60" height="30" as="geometry"/>
                </mxCell>
                <mxCell id="26" value="&amp;lt;&amp;lt;include&amp;gt;&amp;gt;" style="text;html=1;strokeColor=none;fillColor=none;align=center;verticalAlign=middle;whiteSpace=wrap;rounded=0;fontSize=11;rotation=-60;" parent="1" vertex="1">
                    <mxGeometry x="339.87" y="905" width="60" height="30" as="geometry"/>
                </mxCell>
                <mxCell id="28" value="&amp;lt;&amp;lt;include&amp;gt;&amp;gt;" style="text;html=1;strokeColor=none;fillColor=none;align=center;verticalAlign=middle;whiteSpace=wrap;rounded=0;fontSize=11;rotation=-15;" parent="1" vertex="1">
                    <mxGeometry x="265.49" y="860" width="60" height="30" as="geometry"/>
                </mxCell>
                <mxCell id="E0ZFKpVbwkk2b9CQsdlB-31" style="edgeStyle=none;html=1;entryX=1;entryY=0.5;entryDx=0;entryDy=0;" parent="1" target="bJMHT8rVgH3jV2KobR5U-136" edge="1">
                    <mxGeometry relative="1" as="geometry">
                        <mxPoint x="770" y="600" as="sourcePoint"/>
                        <Array as="points">
                            <mxPoint x="670" y="270"/>
                        </Array>
                    </mxGeometry>
                </mxCell>
                <mxCell id="E0ZFKpVbwkk2b9CQsdlB-32" style="edgeStyle=none;html=1;entryX=0;entryY=0.5;entryDx=0;entryDy=0;" parent="1" target="bJMHT8rVgH3jV2KobR5U-136" edge="1">
                    <mxGeometry relative="1" as="geometry">
                        <mxPoint x="100" y="340" as="sourcePoint"/>
                    </mxGeometry>
                </mxCell>
                <mxCell id="E0ZFKpVbwkk2b9CQsdlB-40" value="Quota active application success rate" style="ellipse;whiteSpace=wrap;html=1;fillColor=none;" parent="1" vertex="1">
                    <mxGeometry x="300.26" y="460" width="166" height="60" as="geometry"/>
                </mxCell>
                <mxCell id="E0ZFKpVbwkk2b9CQsdlB-43" style="edgeStyle=none;html=1;entryX=1;entryY=0.5;entryDx=0;entryDy=0;" parent="1" source="E0ZFKpVbwkk2b9CQsdlB-42" target="E0ZFKpVbwkk2b9CQsdlB-40" edge="1">
                    <mxGeometry relative="1" as="geometry"/>
                </mxCell>
                <mxCell id="E0ZFKpVbwkk2b9CQsdlB-42" value="Student college merits" style="ellipse;whiteSpace=wrap;html=1;fillColor=none;" parent="1" vertex="1">
                    <mxGeometry x="518.14" y="460" width="120" height="50" as="geometry"/>
                </mxCell>
                <mxCell id="E0ZFKpVbwkk2b9CQsdlB-59" value="&amp;lt;&amp;lt;include&amp;gt;&amp;gt;" style="text;html=1;strokeColor=none;fillColor=none;align=center;verticalAlign=middle;whiteSpace=wrap;rounded=0;fontSize=11;rotation=85;" parent="1" vertex="1">
                    <mxGeometry x="281.26" y="413" width="60" height="30" as="geometry"/>
                </mxCell>
                <mxCell id="E0ZFKpVbwkk2b9CQsdlB-66" style="edgeStyle=none;html=1;entryX=1;entryY=0;entryDx=0;entryDy=0;" parent="1" target="E0ZFKpVbwkk2b9CQsdlB-42" edge="1">
                    <mxGeometry relative="1" as="geometry">
                        <mxPoint x="740" y="310" as="sourcePoint"/>
                    </mxGeometry>
                </mxCell>
                <mxCell id="E0ZFKpVbwkk2b9CQsdlB-67" style="edgeStyle=none;html=1;entryX=1;entryY=0.5;entryDx=0;entryDy=0;" parent="1" target="bJMHT8rVgH3jV2KobR5U-136" edge="1">
                    <mxGeometry relative="1" as="geometry">
                        <mxPoint x="740" y="310" as="sourcePoint"/>
                        <Array as="points">
                            <mxPoint x="660" y="160"/>
                        </Array>
                    </mxGeometry>
                </mxCell>
                <mxCell id="E0ZFKpVbwkk2b9CQsdlB-65" value="KTDI Fellow Council" style="shape=umlActor;verticalLabelPosition=bottom;verticalAlign=top;html=1;outlineConnect=0;fillColor=#6a00ff;fontColor=#ffffff;strokeColor=#3700CC;" parent="1" vertex="1">
                    <mxGeometry x="750" y="286" width="30" height="60" as="geometry"/>
                </mxCell>
                <mxCell id="E0ZFKpVbwkk2b9CQsdlB-68" style="edgeStyle=none;html=1;entryX=1;entryY=0.5;entryDx=0;entryDy=0;" parent="1" target="bJMHT8rVgH3jV2KobR5U-154" edge="1">
                    <mxGeometry relative="1" as="geometry">
                        <mxPoint x="770" y="600" as="sourcePoint"/>
                    </mxGeometry>
                </mxCell>
                <mxCell id="E0ZFKpVbwkk2b9CQsdlB-70" style="edgeStyle=none;html=1;entryX=0.087;entryY=0.177;entryDx=0;entryDy=0;entryPerimeter=0;" parent="1" target="bJMHT8rVgH3jV2KobR5U-187" edge="1">
                    <mxGeometry relative="1" as="geometry">
                        <mxPoint x="90" y="640" as="sourcePoint"/>
                        <Array as="points">
                            <mxPoint x="170" y="680"/>
                        </Array>
                    </mxGeometry>
                </mxCell>
                <mxCell id="E0ZFKpVbwkk2b9CQsdlB-71" style="edgeStyle=none;html=1;entryX=1;entryY=0;entryDx=0;entryDy=0;" parent="1" target="bJMHT8rVgH3jV2KobR5U-187" edge="1">
                    <mxGeometry relative="1" as="geometry">
                        <mxPoint x="770" y="600" as="sourcePoint"/>
                        <Array as="points">
                            <mxPoint x="700" y="678"/>
                        </Array>
                    </mxGeometry>
                </mxCell>
                <mxCell id="E0ZFKpVbwkk2b9CQsdlB-74" style="edgeStyle=none;html=1;entryX=0;entryY=0.5;entryDx=0;entryDy=0;" parent="1" target="bJMHT8rVgH3jV2KobR5U-136" edge="1">
                    <mxGeometry relative="1" as="geometry">
                        <mxPoint x="390" y="118.59644839638159" as="targetPoint"/>
                        <mxPoint x="90" y="640" as="sourcePoint"/>
                        <Array as="points">
                            <mxPoint x="170" y="330"/>
                        </Array>
                    </mxGeometry>
                </mxCell>
                <mxCell id="D4oXfm0Zomq6TIa_e8fU-32" style="edgeStyle=none;html=1;entryX=1;entryY=0.5;entryDx=0;entryDy=0;" parent="1" source="D4oXfm0Zomq6TIa_e8fU-28" target="D4oXfm0Zomq6TIa_e8fU-29" edge="1">
                    <mxGeometry relative="1" as="geometry"/>
                </mxCell>
                <mxCell id="D4oXfm0Zomq6TIa_e8fU-28" value="Real time room availability" style="ellipse;whiteSpace=wrap;html=1;" parent="1" vertex="1">
                    <mxGeometry x="488.61" y="1010" width="120" height="55" as="geometry"/>
                </mxCell>
                <mxCell id="D4oXfm0Zomq6TIa_e8fU-33" style="edgeStyle=none;html=1;entryX=1;entryY=0.5;entryDx=0;entryDy=0;exitX=0.041;exitY=0.339;exitDx=0;exitDy=0;exitPerimeter=0;" parent="1" source="D4oXfm0Zomq6TIa_e8fU-29" target="D4oXfm0Zomq6TIa_e8fU-30" edge="1">
                    <mxGeometry relative="1" as="geometry"/>
                </mxCell>
                <mxCell id="D4oXfm0Zomq6TIa_e8fU-29" value="Room preferences" style="ellipse;whiteSpace=wrap;html=1;" parent="1" vertex="1">
                    <mxGeometry x="348.61" y="1010" width="115.01" height="55" as="geometry"/>
                </mxCell>
                <mxCell id="D4oXfm0Zomq6TIa_e8fU-30" value="Room allocation" style="ellipse;whiteSpace=wrap;html=1;" parent="1" vertex="1">
                    <mxGeometry x="207.60999999999999" y="990" width="121.26" height="50" as="geometry"/>
                </mxCell>
                <mxCell id="1dNcHJPyDsSYfPNajFhj-29" style="edgeStyle=none;html=1;entryX=1;entryY=0;entryDx=0;entryDy=0;" parent="1" source="1dNcHJPyDsSYfPNajFhj-28" target="D4oXfm0Zomq6TIa_e8fU-28" edge="1">
                    <mxGeometry relative="1" as="geometry"/>
                </mxCell>
                <mxCell id="1dNcHJPyDsSYfPNajFhj-28" value="Hostel room application" style="ellipse;whiteSpace=wrap;html=1;" parent="1" vertex="1">
                    <mxGeometry x="578.92" y="930" width="116.24" height="55" as="geometry"/>
                </mxCell>
                <mxCell id="1dNcHJPyDsSYfPNajFhj-30" style="edgeStyle=none;html=1;entryX=0;entryY=0;entryDx=0;entryDy=0;" parent="1" target="17" edge="1">
                    <mxGeometry relative="1" as="geometry">
                        <mxPoint x="90" y="640" as="sourcePoint"/>
                        <Array as="points">
                            <mxPoint x="120" y="856"/>
                        </Array>
                    </mxGeometry>
                </mxCell>
                <mxCell id="1dNcHJPyDsSYfPNajFhj-31" style="edgeStyle=none;html=1;entryX=1;entryY=0;entryDx=0;entryDy=0;" parent="1" target="17" edge="1">
                    <mxGeometry relative="1" as="geometry">
                        <mxPoint x="770" y="600" as="sourcePoint"/>
                        <Array as="points">
                            <mxPoint x="750" y="856"/>
                        </Array>
                    </mxGeometry>
                </mxCell>
                <mxCell id="1dNcHJPyDsSYfPNajFhj-32" style="edgeStyle=none;html=1;entryX=0.5;entryY=0;entryDx=0;entryDy=0;" parent="1" target="1dNcHJPyDsSYfPNajFhj-28" edge="1">
                    <mxGeometry relative="1" as="geometry">
                        <mxPoint x="770" y="600" as="sourcePoint"/>
                        <Array as="points">
                            <mxPoint x="780" y="890"/>
                        </Array>
                    </mxGeometry>
                </mxCell>
                <mxCell id="1dNcHJPyDsSYfPNajFhj-33" style="edgeStyle=none;html=1;entryX=0;entryY=0.5;entryDx=0;entryDy=0;" parent="1" target="D4oXfm0Zomq6TIa_e8fU-30" edge="1">
                    <mxGeometry relative="1" as="geometry">
                        <mxPoint x="100" y="340" as="sourcePoint"/>
                        <Array as="points">
                            <mxPoint x="150" y="1000"/>
                        </Array>
                    </mxGeometry>
                </mxCell>
                <mxCell id="AR3hY_t0IXQOkz2zPapQ-29" value="&lt;span style=&quot;font-size: 14px;&quot;&gt;&lt;b&gt;STUDENT ACCOMMODATION SYSTEM IN KTDI&lt;/b&gt;&lt;/span&gt;" style="text;html=1;strokeColor=none;fillColor=none;align=center;verticalAlign=middle;whiteSpace=wrap;rounded=0;fontColor=#FFFFFF;" parent="1" vertex="1">
                    <mxGeometry x="251.89" y="18" width="400" height="30" as="geometry"/>
                </mxCell>
            </root>
        </mxGraphModel>
    </diagram>
    <diagram id="NnRZtRVn758745x28peL" name="use_case2">
        <mxGraphModel dx="816" dy="440" grid="1" gridSize="10" guides="1" tooltips="1" connect="1" arrows="1" fold="1" page="1" pageScale="1" pageWidth="850" pageHeight="1100" background="#18141D" math="0" shadow="0">
            <root>
                <mxCell id="0"/>
                <mxCell id="1" parent="0"/>
                <mxCell id="RfPGb7pXets1SDkMzB0E-1" value="" style="shape=folder;fontStyle=1;tabWidth=184;tabHeight=30;tabPosition=left;html=1;boundedLbl=1;" parent="1" vertex="1">
                    <mxGeometry x="276.26" y="250" width="313.74" height="250" as="geometry"/>
                </mxCell>
                <mxCell id="vKzY3sRpvV7MnEEaa_Er-1" value="Centralised Dashboard" style="text;html=1;strokeColor=none;fillColor=none;align=center;verticalAlign=middle;whiteSpace=wrap;rounded=0;" parent="1" vertex="1">
                    <mxGeometry x="290" y="250" width="160" height="30" as="geometry"/>
                </mxCell>
                <mxCell id="ZV1XEdicIy7ifHKwJGVC-1" value="Personal Information" style="ellipse;whiteSpace=wrap;html=1;" parent="1" vertex="1">
                    <mxGeometry x="373.13" y="290" width="120" height="50" as="geometry"/>
                </mxCell>
                <mxCell id="REukmoJLGFNgJBGfeCqs-1" value="Tools / Subsystem links" style="ellipse;whiteSpace=wrap;html=1;" parent="1" vertex="1">
                    <mxGeometry x="373.13" y="350" width="125" height="60" as="geometry"/>
                </mxCell>
                <mxCell id="xMTM8t8lKgWKehQb_t7p-2" style="edgeStyle=none;html=1;entryX=0;entryY=0.5;entryDx=0;entryDy=0;" parent="1" source="xMTM8t8lKgWKehQb_t7p-1" target="ZV1XEdicIy7ifHKwJGVC-1" edge="1">
                    <mxGeometry relative="1" as="geometry"/>
                </mxCell>
                <mxCell id="Ywv7Om9EGeuBlmfnPDXz-2" style="edgeStyle=none;html=1;entryX=0;entryY=0.5;entryDx=0;entryDy=0;" parent="1" source="xMTM8t8lKgWKehQb_t7p-1" target="REukmoJLGFNgJBGfeCqs-1" edge="1">
                    <mxGeometry relative="1" as="geometry"/>
                </mxCell>
                <mxCell id="xMTM8t8lKgWKehQb_t7p-1" value="KTDI Administration" style="shape=umlActor;verticalLabelPosition=bottom;verticalAlign=top;html=1;fillColor=#e51400;fontColor=#ffffff;strokeColor=#B20000;" parent="1" vertex="1">
                    <mxGeometry x="130" y="260" width="30" height="60" as="geometry"/>
                </mxCell>
                <mxCell id="Ywv7Om9EGeuBlmfnPDXz-1" style="edgeStyle=none;html=1;entryX=0;entryY=0.5;entryDx=0;entryDy=0;" parent="1" source="vIgXbAxTlbhbRJTA8lvU-1" target="ZV1XEdicIy7ifHKwJGVC-1" edge="1">
                    <mxGeometry relative="1" as="geometry"/>
                </mxCell>
                <mxCell id="Ywv7Om9EGeuBlmfnPDXz-3" style="edgeStyle=none;html=1;" parent="1" source="vIgXbAxTlbhbRJTA8lvU-1" edge="1">
                    <mxGeometry relative="1" as="geometry">
                        <mxPoint x="370" y="380" as="targetPoint"/>
                    </mxGeometry>
                </mxCell>
                <mxCell id="vIgXbAxTlbhbRJTA8lvU-1" value="KTDI Staff" style="shape=umlActor;verticalLabelPosition=bottom;verticalAlign=top;html=1;fillColor=#e3c800;fontColor=#000000;strokeColor=#B09500;" parent="1" vertex="1">
                    <mxGeometry x="130" y="380" width="30" height="60" as="geometry"/>
                </mxCell>
                <mxCell id="D-pRHHTxV_WCXtgz7MWv-2" style="edgeStyle=none;html=1;entryX=1;entryY=0.5;entryDx=0;entryDy=0;" parent="1" source="D-pRHHTxV_WCXtgz7MWv-1" target="ZV1XEdicIy7ifHKwJGVC-1" edge="1">
                    <mxGeometry relative="1" as="geometry"/>
                </mxCell>
                <mxCell id="D-pRHHTxV_WCXtgz7MWv-3" style="edgeStyle=none;html=1;entryX=1;entryY=0.5;entryDx=0;entryDy=0;" parent="1" source="D-pRHHTxV_WCXtgz7MWv-1" target="REukmoJLGFNgJBGfeCqs-1" edge="1">
                    <mxGeometry relative="1" as="geometry"/>
                </mxCell>
                <mxCell id="dJMOS2tQHbw10Aw1Axn4-2" style="edgeStyle=none;html=1;entryX=1;entryY=0.5;entryDx=0;entryDy=0;" parent="1" source="D-pRHHTxV_WCXtgz7MWv-1" target="dJMOS2tQHbw10Aw1Axn4-1" edge="1">
                    <mxGeometry relative="1" as="geometry"/>
                </mxCell>
                <mxCell id="D-pRHHTxV_WCXtgz7MWv-1" value="Student" style="shape=umlActor;verticalLabelPosition=bottom;verticalAlign=top;html=1;fillColor=#1ba1e2;fontColor=#ffffff;strokeColor=#006EAF;" parent="1" vertex="1">
                    <mxGeometry x="690" y="305" width="30" height="60" as="geometry"/>
                </mxCell>
                <mxCell id="L-keXygtFYbw7tPfyjT_-2" style="edgeStyle=none;html=1;entryX=1;entryY=0.5;entryDx=0;entryDy=0;" parent="1" source="L-keXygtFYbw7tPfyjT_-1" target="ZV1XEdicIy7ifHKwJGVC-1" edge="1">
                    <mxGeometry relative="1" as="geometry"/>
                </mxCell>
                <mxCell id="L-keXygtFYbw7tPfyjT_-3" style="edgeStyle=none;html=1;entryX=1;entryY=0.5;entryDx=0;entryDy=0;" parent="1" source="L-keXygtFYbw7tPfyjT_-1" target="REukmoJLGFNgJBGfeCqs-1" edge="1">
                    <mxGeometry relative="1" as="geometry"/>
                </mxCell>
                <mxCell id="L-keXygtFYbw7tPfyjT_-1" value="KTDI Fellow Council" style="shape=umlActor;verticalLabelPosition=bottom;verticalAlign=top;html=1;outlineConnect=0;fillColor=#6a00ff;fontColor=#ffffff;strokeColor=#3700CC;" parent="1" vertex="1">
                    <mxGeometry x="690" y="440" width="30" height="60" as="geometry"/>
                </mxCell>
                <mxCell id="dJMOS2tQHbw10Aw1Axn4-1" value="Hostel Information" style="ellipse;whiteSpace=wrap;html=1;" parent="1" vertex="1">
                    <mxGeometry x="370.63" y="424" width="125" height="60" as="geometry"/>
                </mxCell>
            </root>
        </mxGraphModel>
    </diagram>
    <diagram id="rMF2I0FMHV4U05aj5x2J" name="sequence_diagram">
        <mxGraphModel dx="816" dy="440" grid="1" gridSize="10" guides="1" tooltips="1" connect="1" arrows="1" fold="1" page="1" pageScale="1" pageWidth="850" pageHeight="1100" math="0" shadow="0">
            <root>
                <mxCell id="0"/>
                <mxCell id="1" parent="0"/>
                <mxCell id="S5-y5zS6l2NAs_fPD0nN-1" value="Student" style="shape=umlActor;verticalLabelPosition=bottom;verticalAlign=top;html=1;fillColor=#1ba1e2;fontColor=#ffffff;strokeColor=#006EAF;" parent="1" vertex="1">
                    <mxGeometry x="40" y="40" width="30" height="60" as="geometry"/>
                </mxCell>
                <mxCell id="S5-y5zS6l2NAs_fPD0nN-2" value="Admin&lt;span style=&quot;color: rgba(0, 0, 0, 0); font-family: monospace; font-size: 0px; text-align: start;&quot;&gt;%3CmxGraphModel%3E%3Croot%3E%3CmxCell%20id%3D%220%22%2F%3E%3CmxCell%20id%3D%221%22%20parent%3D%220%22%2F%3E%3CmxCell%20id%3D%222%22%20value%3D%22Student%22%20style%3D%22shape%3DumlActor%3BverticalLabelPosition%3Dbottom%3BverticalAlign%3Dtop%3Bhtml%3D1%3B%22%20vertex%3D%221%22%20parent%3D%221%22%3E%3CmxGeometry%20x%3D%2230%22%20y%3D%2230%22%20width%3D%2230%22%20height%3D%2260%22%20as%3D%22geometry%22%2F%3E%3C%2FmxCell%3E%3C%2Froot%3E%3C%2FmxGraphModel%3E&lt;/span&gt;" style="shape=umlActor;verticalLabelPosition=bottom;verticalAlign=top;html=1;fillColor=#e51400;fontColor=#ffffff;strokeColor=#B20000;" parent="1" vertex="1">
                    <mxGeometry x="160" y="40" width="30" height="60" as="geometry"/>
                </mxCell>
                <mxCell id="S5-y5zS6l2NAs_fPD0nN-3" value="Staff" style="shape=umlActor;verticalLabelPosition=bottom;verticalAlign=top;html=1;fillColor=#e3c800;fontColor=#000000;strokeColor=#B09500;" parent="1" vertex="1">
                    <mxGeometry x="210" y="40" width="30" height="60" as="geometry"/>
                </mxCell>
                <mxCell id="S5-y5zS6l2NAs_fPD0nN-4" value="Felow" style="shape=umlActor;verticalLabelPosition=bottom;verticalAlign=top;html=1;fillColor=#6a00ff;fontColor=#ffffff;strokeColor=#3700CC;" parent="1" vertex="1">
                    <mxGeometry x="100" y="40" width="30" height="60" as="geometry"/>
                </mxCell>
                <mxCell id="S5-y5zS6l2NAs_fPD0nN-5" value="Student" style="shape=umlActor;verticalLabelPosition=bottom;verticalAlign=top;html=1;fillColor=#1ba1e2;fontColor=#ffffff;strokeColor=#006EAF;" parent="1" vertex="1">
                    <mxGeometry x="40" y="990" width="30" height="60" as="geometry"/>
                </mxCell>
                <mxCell id="S5-y5zS6l2NAs_fPD0nN-6" value="Admin&lt;span style=&quot;color: rgba(0, 0, 0, 0); font-family: monospace; font-size: 0px; text-align: start;&quot;&gt;%3CmxGraphModel%3E%3Croot%3E%3CmxCell%20id%3D%220%22%2F%3E%3CmxCell%20id%3D%221%22%20parent%3D%220%22%2F%3E%3CmxCell%20id%3D%222%22%20value%3D%22Student%22%20style%3D%22shape%3DumlActor%3BverticalLabelPosition%3Dbottom%3BverticalAlign%3Dtop%3Bhtml%3D1%3B%22%20vertex%3D%221%22%20parent%3D%221%22%3E%3CmxGeometry%20x%3D%2230%22%20y%3D%2230%22%20width%3D%2230%22%20height%3D%2260%22%20as%3D%22geometry%22%2F%3E%3C%2FmxCell%3E%3C%2Froot%3E%3C%2FmxGraphModel%3E&lt;/span&gt;" style="shape=umlActor;verticalLabelPosition=bottom;verticalAlign=top;html=1;fillColor=#e51400;fontColor=#ffffff;strokeColor=#B20000;" parent="1" vertex="1">
                    <mxGeometry x="159" y="990" width="30" height="60" as="geometry"/>
                </mxCell>
                <mxCell id="S5-y5zS6l2NAs_fPD0nN-7" value="Staff" style="shape=umlActor;verticalLabelPosition=bottom;verticalAlign=top;html=1;fillColor=#e3c800;fontColor=#FFFFFF;strokeColor=#B09500;" parent="1" vertex="1">
                    <mxGeometry x="209" y="990" width="30" height="60" as="geometry"/>
                </mxCell>
                <mxCell id="S5-y5zS6l2NAs_fPD0nN-8" value="Felow" style="shape=umlActor;verticalLabelPosition=bottom;verticalAlign=top;html=1;fillColor=#6a00ff;fontColor=#ffffff;strokeColor=#3700CC;" parent="1" vertex="1">
                    <mxGeometry x="100" y="990" width="30" height="60" as="geometry"/>
                </mxCell>
                <mxCell id="S5-y5zS6l2NAs_fPD0nN-9" value="" style="rounded=0;whiteSpace=wrap;html=1;" parent="1" vertex="1">
                    <mxGeometry x="52.5" y="160" width="5" height="120" as="geometry"/>
                </mxCell>
                <mxCell id="S5-y5zS6l2NAs_fPD0nN-10" value="Authentication Subsystem" style="rounded=0;whiteSpace=wrap;html=1;shadow=0;" parent="1" vertex="1">
                    <mxGeometry x="290" y="70" width="160" height="30" as="geometry"/>
                </mxCell>
                <mxCell id="S5-y5zS6l2NAs_fPD0nN-11" value="Report &amp;amp; Analytic Subsystem" style="rounded=0;whiteSpace=wrap;html=1;shadow=0;" parent="1" vertex="1">
                    <mxGeometry x="900" y="70" width="160" height="30" as="geometry"/>
                </mxCell>
                <mxCell id="S5-y5zS6l2NAs_fPD0nN-12" value="Payment Management Subsystem" style="rounded=0;whiteSpace=wrap;html=1;shadow=0;" parent="1" vertex="1">
                    <mxGeometry x="690" y="70" width="190" height="30" as="geometry"/>
                </mxCell>
                <mxCell id="S5-y5zS6l2NAs_fPD0nN-13" value="Room Management Subsystem" style="rounded=0;whiteSpace=wrap;html=1;shadow=0;" parent="1" vertex="1">
                    <mxGeometry x="480" y="70" width="190" height="30" as="geometry"/>
                </mxCell>
                <mxCell id="S5-y5zS6l2NAs_fPD0nN-14" value="" style="endArrow=classic;html=1;endSize=4;startSize=4;" parent="1" edge="1">
                    <mxGeometry width="50" height="50" relative="1" as="geometry">
                        <mxPoint x="57.5" y="165" as="sourcePoint"/>
                        <mxPoint x="370" y="165" as="targetPoint"/>
                    </mxGeometry>
                </mxCell>
                <mxCell id="S5-y5zS6l2NAs_fPD0nN-15" value="Login as student" style="text;html=1;align=center;verticalAlign=middle;resizable=0;points=[];autosize=1;strokeColor=none;fillColor=none;" parent="1" vertex="1">
                    <mxGeometry x="259.5" y="140" width="110" height="30" as="geometry"/>
                </mxCell>
                <mxCell id="S5-y5zS6l2NAs_fPD0nN-16" value="" style="edgeStyle=none;html=1;entryX=0.5;entryY=0;entryDx=0;entryDy=0;dashed=1;dashPattern=8 8;endArrow=none;endFill=0;startArrow=none;" parent="1" source="S5-y5zS6l2NAs_fPD0nN-19" edge="1">
                    <mxGeometry relative="1" as="geometry">
                        <mxPoint x="369.40999999999997" y="100" as="sourcePoint"/>
                        <mxPoint x="369.4099999999996" y="180" as="targetPoint"/>
                    </mxGeometry>
                </mxCell>
                <mxCell id="S5-y5zS6l2NAs_fPD0nN-17" value="" style="edgeStyle=none;html=1;dashed=1;dashPattern=8 8;endArrow=none;endFill=0;" parent="1" source="S5-y5zS6l2NAs_fPD0nN-1" edge="1">
                    <mxGeometry relative="1" as="geometry">
                        <mxPoint x="54.40999999999997" y="110" as="sourcePoint"/>
                        <mxPoint x="55" y="160" as="targetPoint"/>
                    </mxGeometry>
                </mxCell>
                <mxCell id="S5-y5zS6l2NAs_fPD0nN-18" value="" style="edgeStyle=none;html=1;entryX=0.5;entryY=0;entryDx=0;entryDy=0;dashed=1;dashPattern=8 8;endArrow=none;endFill=0;" parent="1" edge="1">
                    <mxGeometry relative="1" as="geometry">
                        <mxPoint x="371.40999999999985" y="100" as="sourcePoint"/>
                        <mxPoint x="371.9999999999998" y="163.9999999999999" as="targetPoint"/>
                    </mxGeometry>
                </mxCell>
                <mxCell id="S5-y5zS6l2NAs_fPD0nN-19" value="" style="rounded=0;whiteSpace=wrap;html=1;" parent="1" vertex="1">
                    <mxGeometry x="369.5" y="163" width="5" height="40" as="geometry"/>
                </mxCell>
                <mxCell id="S5-y5zS6l2NAs_fPD0nN-20" value="" style="edgeStyle=none;html=1;entryX=0.5;entryY=0;entryDx=0;entryDy=0;dashed=1;dashPattern=8 8;endArrow=none;endFill=0;" parent="1" target="S5-y5zS6l2NAs_fPD0nN-21" edge="1">
                    <mxGeometry relative="1" as="geometry">
                        <mxPoint x="571.0000000000002" y="103" as="sourcePoint"/>
                        <mxPoint x="572.59" y="166.9999999999999" as="targetPoint"/>
                    </mxGeometry>
                </mxCell>
                <mxCell id="S5-y5zS6l2NAs_fPD0nN-21" value="" style="rounded=0;whiteSpace=wrap;html=1;" parent="1" vertex="1">
                    <mxGeometry x="568" y="203" width="5" height="40" as="geometry"/>
                </mxCell>
                <mxCell id="S5-y5zS6l2NAs_fPD0nN-22" value="" style="endArrow=classic;html=1;endSize=4;startSize=4;entryX=0;entryY=0;entryDx=0;entryDy=0;" parent="1" target="S5-y5zS6l2NAs_fPD0nN-21" edge="1">
                    <mxGeometry width="50" height="50" relative="1" as="geometry">
                        <mxPoint x="374.4999999999998" y="203" as="sourcePoint"/>
                        <mxPoint x="687" y="203" as="targetPoint"/>
                    </mxGeometry>
                </mxCell>
                <mxCell id="S5-y5zS6l2NAs_fPD0nN-23" value="" style="edgeStyle=none;html=1;dashed=1;dashPattern=8 8;endArrow=none;endFill=0;exitX=0.419;exitY=1.082;exitDx=0;exitDy=0;exitPerimeter=0;entryX=0.5;entryY=0;entryDx=0;entryDy=0;" parent="1" source="S5-y5zS6l2NAs_fPD0nN-12" target="S5-y5zS6l2NAs_fPD0nN-26" edge="1">
                    <mxGeometry relative="1" as="geometry">
                        <mxPoint x="769.5" y="140" as="sourcePoint"/>
                        <mxPoint x="800" y="210" as="targetPoint"/>
                    </mxGeometry>
                </mxCell>
                <mxCell id="S5-y5zS6l2NAs_fPD0nN-24" value="" style="rounded=0;whiteSpace=wrap;html=1;" parent="1" vertex="1">
                    <mxGeometry x="766.5" y="240" width="3.5" height="40" as="geometry"/>
                </mxCell>
                <mxCell id="S5-y5zS6l2NAs_fPD0nN-25" value="" style="endArrow=classic;html=1;endSize=4;startSize=4;entryX=0;entryY=0;entryDx=0;entryDy=0;" parent="1" target="S5-y5zS6l2NAs_fPD0nN-24" edge="1">
                    <mxGeometry width="50" height="50" relative="1" as="geometry">
                        <mxPoint x="573" y="240" as="sourcePoint"/>
                        <mxPoint x="885.5" y="240" as="targetPoint"/>
                    </mxGeometry>
                </mxCell>
                <mxCell id="S5-y5zS6l2NAs_fPD0nN-26" value="" style="rounded=0;whiteSpace=wrap;html=1;" parent="1" vertex="1">
                    <mxGeometry x="766.5" y="240" width="5" height="40" as="geometry"/>
                </mxCell>
                <mxCell id="S5-y5zS6l2NAs_fPD0nN-27" value="" style="edgeStyle=none;html=1;dashed=1;dashPattern=8 8;endArrow=none;endFill=0;exitX=0.419;exitY=1.082;exitDx=0;exitDy=0;exitPerimeter=0;" parent="1" edge="1">
                    <mxGeometry relative="1" as="geometry">
                        <mxPoint x="980.6099999999997" y="100" as="sourcePoint"/>
                        <mxPoint x="980" y="350" as="targetPoint"/>
                    </mxGeometry>
                </mxCell>
                <mxCell id="S5-y5zS6l2NAs_fPD0nN-28" value="" style="rounded=0;whiteSpace=wrap;html=1;" parent="1" vertex="1">
                    <mxGeometry x="977.5" y="348" width="5" height="40" as="geometry"/>
                </mxCell>
                <mxCell id="S5-y5zS6l2NAs_fPD0nN-29" value="&lt;span style=&quot;&quot;&gt;&lt;font style=&quot;font-size: 11px;&quot;&gt;&lt;br&gt;Hostel room avaibility&lt;br&gt;&lt;/font&gt;&lt;br&gt;&lt;/span&gt;" style="text;html=1;align=center;verticalAlign=middle;resizable=0;points=[];autosize=1;strokeColor=none;fillColor=none;" parent="1" vertex="1">
                    <mxGeometry x="440" y="160" width="130" height="60" as="geometry"/>
                </mxCell>
                <mxCell id="S5-y5zS6l2NAs_fPD0nN-30" value="Make payment&lt;br&gt;Payment information" style="text;html=1;align=center;verticalAlign=middle;resizable=0;points=[];autosize=1;strokeColor=none;fillColor=none;" parent="1" vertex="1">
                    <mxGeometry x="641.5" y="200" width="130" height="40" as="geometry"/>
                </mxCell>
                <mxCell id="S5-y5zS6l2NAs_fPD0nN-31" value="" style="edgeStyle=none;html=1;dashed=1;dashPattern=8 8;endArrow=none;endFill=0;entryX=0.5;entryY=0;entryDx=0;entryDy=0;" parent="1" target="S5-y5zS6l2NAs_fPD0nN-33" edge="1">
                    <mxGeometry relative="1" as="geometry">
                        <mxPoint x="114.49999999999977" y="100" as="sourcePoint"/>
                        <mxPoint x="115" y="280" as="targetPoint"/>
                    </mxGeometry>
                </mxCell>
                <mxCell id="S5-y5zS6l2NAs_fPD0nN-32" value="" style="endArrow=classic;html=1;endSize=4;startSize=4;exitX=1.5;exitY=0.022;exitDx=0;exitDy=0;exitPerimeter=0;entryX=0;entryY=0;entryDx=0;entryDy=0;" parent="1" target="S5-y5zS6l2NAs_fPD0nN-28" edge="1">
                    <mxGeometry width="50" height="50" relative="1" as="geometry">
                        <mxPoint x="375" y="348" as="sourcePoint"/>
                        <mxPoint x="940" y="349" as="targetPoint"/>
                    </mxGeometry>
                </mxCell>
                <mxCell id="S5-y5zS6l2NAs_fPD0nN-33" value="" style="rounded=0;whiteSpace=wrap;html=1;" parent="1" vertex="1">
                    <mxGeometry x="112.5" y="310" width="5" height="80" as="geometry"/>
                </mxCell>
                <mxCell id="S5-y5zS6l2NAs_fPD0nN-34" value="" style="endArrow=classic;html=1;endSize=4;startSize=4;" parent="1" edge="1">
                    <mxGeometry width="50" height="50" relative="1" as="geometry">
                        <mxPoint x="117.5" y="309.5" as="sourcePoint"/>
                        <mxPoint x="370" y="310" as="targetPoint"/>
                    </mxGeometry>
                </mxCell>
                <mxCell id="S5-y5zS6l2NAs_fPD0nN-35" value="" style="edgeStyle=none;html=1;dashed=1;dashPattern=8 8;endArrow=none;endFill=0;" parent="1" edge="1">
                    <mxGeometry relative="1" as="geometry">
                        <mxPoint x="371.4999999999998" y="203" as="sourcePoint"/>
                        <mxPoint x="371.9999999999998" y="313" as="targetPoint"/>
                    </mxGeometry>
                </mxCell>
                <mxCell id="S5-y5zS6l2NAs_fPD0nN-36" value="" style="rounded=0;whiteSpace=wrap;html=1;" parent="1" vertex="1">
                    <mxGeometry x="369.5" y="308" width="5" height="40" as="geometry"/>
                </mxCell>
                <mxCell id="S5-y5zS6l2NAs_fPD0nN-37" value="&lt;span style=&quot;color: rgb(0, 0, 0); font-family: Helvetica; font-size: 12px; font-style: normal; font-variant-ligatures: normal; font-variant-caps: normal; font-weight: 400; letter-spacing: normal; orphans: 2; text-align: center; text-indent: 0px; text-transform: none; widows: 2; word-spacing: 0px; -webkit-text-stroke-width: 0px; background-color: rgb(251, 251, 251); text-decoration-thickness: initial; text-decoration-style: initial; text-decoration-color: initial; float: none; display: inline !important;&quot;&gt;Login as Fellow/JKM&lt;/span&gt;" style="text;whiteSpace=wrap;html=1;fontSize=8;" parent="1" vertex="1">
                    <mxGeometry x="254.5" y="285" width="120" height="40" as="geometry"/>
                </mxCell>
                <mxCell id="S5-y5zS6l2NAs_fPD0nN-38" value="&lt;span style=&quot;color: rgb(0, 0, 0); font-family: Helvetica; font-size: 12px; font-style: normal; font-variant-ligatures: normal; font-variant-caps: normal; font-weight: 400; letter-spacing: normal; orphans: 2; text-align: center; text-indent: 0px; text-transform: none; widows: 2; word-spacing: 0px; -webkit-text-stroke-width: 0px; background-color: rgb(251, 251, 251); text-decoration-thickness: initial; text-decoration-style: initial; text-decoration-color: initial; float: none; display: inline !important;&quot;&gt;Update Student college merits&lt;/span&gt;" style="text;whiteSpace=wrap;html=1;fontSize=8;" parent="1" vertex="1">
                    <mxGeometry x="850" y="307" width="150" height="40" as="geometry"/>
                </mxCell>
                <mxCell id="S5-y5zS6l2NAs_fPD0nN-39" style="edgeStyle=none;curved=1;html=1;exitX=1;exitY=0.25;exitDx=0;exitDy=0;endArrow=classic;endFill=1;startSize=4;endSize=4;entryX=1;entryY=0.75;entryDx=0;entryDy=0;" parent="1" edge="1">
                    <mxGeometry relative="1" as="geometry">
                        <mxPoint x="982.5" y="377" as="targetPoint"/>
                        <Array as="points">
                            <mxPoint x="1001" y="348"/>
                            <mxPoint x="1011" y="358"/>
                            <mxPoint x="1001" y="378"/>
                        </Array>
                        <mxPoint x="982.94" y="357" as="sourcePoint"/>
                    </mxGeometry>
                </mxCell>
                <mxCell id="S5-y5zS6l2NAs_fPD0nN-40" value="&lt;span style=&quot;&quot;&gt;Quota active application &lt;br&gt;success rate&lt;/span&gt;" style="text;html=1;align=center;verticalAlign=middle;resizable=0;points=[];autosize=1;strokeColor=none;fillColor=none;" parent="1" vertex="1">
                    <mxGeometry x="1000" y="348" width="150" height="40" as="geometry"/>
                </mxCell>
                <mxCell id="S5-y5zS6l2NAs_fPD0nN-41" value="" style="rounded=0;whiteSpace=wrap;html=1;" parent="1" vertex="1">
                    <mxGeometry x="172.5" y="440" width="5" height="130" as="geometry"/>
                </mxCell>
                <mxCell id="S5-y5zS6l2NAs_fPD0nN-42" value="" style="endArrow=classic;html=1;endSize=4;startSize=4;" parent="1" edge="1">
                    <mxGeometry width="50" height="50" relative="1" as="geometry">
                        <mxPoint x="177.5" y="449" as="sourcePoint"/>
                        <mxPoint x="370" y="450" as="targetPoint"/>
                    </mxGeometry>
                </mxCell>
                <mxCell id="S5-y5zS6l2NAs_fPD0nN-43" value="" style="rounded=0;whiteSpace=wrap;html=1;" parent="1" vertex="1">
                    <mxGeometry x="369.5" y="448" width="5" height="40" as="geometry"/>
                </mxCell>
                <mxCell id="S5-y5zS6l2NAs_fPD0nN-44" value="&lt;span style=&quot;color: rgb(0, 0, 0); font-family: Helvetica; font-size: 12px; font-style: normal; font-variant-ligatures: normal; font-variant-caps: normal; font-weight: 400; letter-spacing: normal; orphans: 2; text-align: center; text-indent: 0px; text-transform: none; widows: 2; word-spacing: 0px; -webkit-text-stroke-width: 0px; background-color: rgb(251, 251, 251); text-decoration-thickness: initial; text-decoration-style: initial; text-decoration-color: initial; float: none; display: inline !important;&quot;&gt;Login as Admin&lt;/span&gt;" style="text;whiteSpace=wrap;html=1;fontSize=8;" parent="1" vertex="1">
                    <mxGeometry x="280" y="420" width="120" height="40" as="geometry"/>
                </mxCell>
                <mxCell id="S5-y5zS6l2NAs_fPD0nN-45" value="" style="edgeStyle=none;html=1;dashed=1;dashPattern=8 8;endArrow=none;endFill=0;entryX=0.5;entryY=0;entryDx=0;entryDy=0;" parent="1" target="S5-y5zS6l2NAs_fPD0nN-41" edge="1">
                    <mxGeometry relative="1" as="geometry">
                        <mxPoint x="175" y="100" as="sourcePoint"/>
                        <mxPoint x="175.5" y="280" as="targetPoint"/>
                    </mxGeometry>
                </mxCell>
                <mxCell id="S5-y5zS6l2NAs_fPD0nN-46" value="" style="edgeStyle=none;html=1;dashed=1;dashPattern=8 8;endArrow=none;endFill=0;" parent="1" edge="1">
                    <mxGeometry relative="1" as="geometry">
                        <mxPoint x="371.4999999999998" y="348.9999999999999" as="sourcePoint"/>
                        <mxPoint x="371.9999999999998" y="449" as="targetPoint"/>
                    </mxGeometry>
                </mxCell>
                <mxCell id="S5-y5zS6l2NAs_fPD0nN-47" value="" style="edgeStyle=none;html=1;entryX=0.5;entryY=0;entryDx=0;entryDy=0;dashed=1;dashPattern=8 8;endArrow=none;endFill=0;" parent="1" target="S5-y5zS6l2NAs_fPD0nN-48" edge="1">
                    <mxGeometry relative="1" as="geometry">
                        <mxPoint x="571.0000000000002" y="248" as="sourcePoint"/>
                        <mxPoint x="572.59" y="311.9999999999999" as="targetPoint"/>
                    </mxGeometry>
                </mxCell>
                <mxCell id="S5-y5zS6l2NAs_fPD0nN-48" value="" style="rounded=0;whiteSpace=wrap;html=1;" parent="1" vertex="1">
                    <mxGeometry x="568" y="488" width="5" height="40" as="geometry"/>
                </mxCell>
                <mxCell id="S5-y5zS6l2NAs_fPD0nN-49" value="" style="edgeStyle=none;html=1;entryX=0.5;entryY=0;entryDx=0;entryDy=0;dashed=1;dashPattern=8 8;endArrow=none;endFill=0;startArrow=none;" parent="1" edge="1">
                    <mxGeometry relative="1" as="geometry">
                        <mxPoint x="369.5899999999999" y="464.1042471042474" as="sourcePoint"/>
                        <mxPoint x="369.4999999999998" y="464" as="targetPoint"/>
                    </mxGeometry>
                </mxCell>
                <mxCell id="S5-y5zS6l2NAs_fPD0nN-50" value="" style="endArrow=classic;html=1;endSize=4;startSize=4;entryX=0;entryY=0;entryDx=0;entryDy=0;" parent="1" edge="1">
                    <mxGeometry width="50" height="50" relative="1" as="geometry">
                        <mxPoint x="374.5899999999999" y="487" as="sourcePoint"/>
                        <mxPoint x="568.0900000000001" y="487" as="targetPoint"/>
                    </mxGeometry>
                </mxCell>
                <mxCell id="S5-y5zS6l2NAs_fPD0nN-51" value="&lt;span style=&quot;color: rgb(0, 0, 0); font-family: Helvetica; font-size: 12px; font-style: normal; font-variant-ligatures: normal; font-variant-caps: normal; font-weight: 400; letter-spacing: normal; orphans: 2; text-align: center; text-indent: 0px; text-transform: none; widows: 2; word-spacing: 0px; -webkit-text-stroke-width: 0px; background-color: rgb(251, 251, 251); text-decoration-thickness: initial; text-decoration-style: initial; text-decoration-color: initial; float: none; display: inline !important;&quot;&gt;Room allocation&lt;/span&gt;" style="text;whiteSpace=wrap;html=1;fontSize=8;" parent="1" vertex="1">
                    <mxGeometry x="470" y="460" width="120" height="40" as="geometry"/>
                </mxCell>
                <mxCell id="S5-y5zS6l2NAs_fPD0nN-52" value="" style="edgeStyle=none;html=1;dashed=1;dashPattern=8 8;endArrow=none;endFill=0;exitX=0.419;exitY=1.082;exitDx=0;exitDy=0;exitPerimeter=0;entryX=0.5;entryY=0;entryDx=0;entryDy=0;" parent="1" target="S5-y5zS6l2NAs_fPD0nN-89" edge="1">
                    <mxGeometry relative="1" as="geometry">
                        <mxPoint x="980.6099999999997" y="388" as="sourcePoint"/>
                        <mxPoint x="980" y="638" as="targetPoint"/>
                    </mxGeometry>
                </mxCell>
                <mxCell id="S5-y5zS6l2NAs_fPD0nN-53" value="" style="rounded=0;whiteSpace=wrap;html=1;" parent="1" vertex="1">
                    <mxGeometry x="977.5" y="526" width="5" height="40" as="geometry"/>
                </mxCell>
                <mxCell id="S5-y5zS6l2NAs_fPD0nN-54" value="" style="edgeStyle=none;html=1;entryX=0.5;entryY=0;entryDx=0;entryDy=0;dashed=1;dashPattern=8 8;endArrow=none;endFill=0;startArrow=none;" parent="1" edge="1">
                    <mxGeometry relative="1" as="geometry">
                        <mxPoint x="568.0900000000001" y="504.1042471042474" as="sourcePoint"/>
                        <mxPoint x="568" y="504" as="targetPoint"/>
                    </mxGeometry>
                </mxCell>
                <mxCell id="S5-y5zS6l2NAs_fPD0nN-55" value="" style="endArrow=classic;html=1;endSize=4;startSize=4;entryX=0.25;entryY=0;entryDx=0;entryDy=0;" parent="1" target="S5-y5zS6l2NAs_fPD0nN-53" edge="1">
                    <mxGeometry width="50" height="50" relative="1" as="geometry">
                        <mxPoint x="573.0900000000001" y="527" as="sourcePoint"/>
                        <mxPoint x="960" y="527" as="targetPoint"/>
                    </mxGeometry>
                </mxCell>
                <mxCell id="S5-y5zS6l2NAs_fPD0nN-56" value="&lt;span style=&quot;font-size: 12px; text-align: center;&quot;&gt;Overview reports&lt;/span&gt;" style="text;whiteSpace=wrap;html=1;fontSize=8;" parent="1" vertex="1">
                    <mxGeometry x="880" y="500" width="120" height="40" as="geometry"/>
                </mxCell>
                <mxCell id="S5-y5zS6l2NAs_fPD0nN-57" style="edgeStyle=none;curved=1;html=1;exitX=0;exitY=1;exitDx=0;exitDy=0;endArrow=classic;endFill=1;startSize=4;endSize=4;dashed=1;" parent="1" source="S5-y5zS6l2NAs_fPD0nN-26" edge="1">
                    <mxGeometry relative="1" as="geometry">
                        <mxPoint x="57.5" y="275" as="targetPoint"/>
                        <mxPoint x="975" y="280" as="sourcePoint"/>
                    </mxGeometry>
                </mxCell>
                <mxCell id="S5-y5zS6l2NAs_fPD0nN-58" value="" style="edgeStyle=none;html=1;dashed=1;dashPattern=8 8;endArrow=none;endFill=0;exitX=0.25;exitY=1;exitDx=0;exitDy=0;entryX=0.5;entryY=0;entryDx=0;entryDy=0;entryPerimeter=0;" parent="1" source="S5-y5zS6l2NAs_fPD0nN-9" target="S5-y5zS6l2NAs_fPD0nN-5" edge="1">
                    <mxGeometry relative="1" as="geometry">
                        <mxPoint x="54.58" y="560" as="sourcePoint"/>
                        <mxPoint x="55" y="980" as="targetPoint"/>
                    </mxGeometry>
                </mxCell>
                <mxCell id="S5-y5zS6l2NAs_fPD0nN-59" style="edgeStyle=none;curved=1;html=1;exitX=0;exitY=1;exitDx=0;exitDy=0;endArrow=classic;endFill=1;startSize=4;endSize=4;dashed=1;" parent="1" edge="1">
                    <mxGeometry relative="1" as="geometry">
                        <mxPoint x="120" y="388" as="targetPoint"/>
                        <mxPoint x="977.5" y="388" as="sourcePoint"/>
                    </mxGeometry>
                </mxCell>
                <mxCell id="S5-y5zS6l2NAs_fPD0nN-60" value="" style="edgeStyle=none;html=1;dashed=1;dashPattern=8 8;endArrow=none;endFill=0;exitX=0.25;exitY=1;exitDx=0;exitDy=0;entryX=0.5;entryY=0;entryDx=0;entryDy=0;entryPerimeter=0;" parent="1" target="S5-y5zS6l2NAs_fPD0nN-8" edge="1">
                    <mxGeometry relative="1" as="geometry">
                        <mxPoint x="114.38000000000011" y="388" as="sourcePoint"/>
                        <mxPoint x="116" y="980" as="targetPoint"/>
                    </mxGeometry>
                </mxCell>
                <mxCell id="S5-y5zS6l2NAs_fPD0nN-61" style="edgeStyle=none;curved=1;html=1;endArrow=classic;endFill=1;startSize=4;endSize=4;dashed=1;" parent="1" edge="1">
                    <mxGeometry relative="1" as="geometry">
                        <mxPoint x="177.5" y="367.28999999999996" as="targetPoint"/>
                        <mxPoint x="980" y="367" as="sourcePoint"/>
                    </mxGeometry>
                </mxCell>
                <mxCell id="S5-y5zS6l2NAs_fPD0nN-62" value="&lt;span style=&quot;color: rgb(0, 0, 0); font-family: Helvetica; font-size: 12px; font-style: normal; font-variant-ligatures: normal; font-variant-caps: normal; font-weight: 400; letter-spacing: normal; orphans: 2; text-align: center; text-indent: 0px; text-transform: none; widows: 2; word-spacing: 0px; -webkit-text-stroke-width: 0px; background-color: rgb(251, 251, 251); text-decoration-thickness: initial; text-decoration-style: initial; text-decoration-color: initial; float: none; display: inline !important;&quot;&gt;Quota&amp;nbsp;&lt;/span&gt;&lt;span style=&quot;font-size: 12px; text-align: center;&quot;&gt;active application&amp;nbsp;&lt;/span&gt;&lt;span style=&quot;font-size: 12px; text-align: center;&quot;&gt;success rate updated info&lt;/span&gt;" style="text;whiteSpace=wrap;html=1;fontSize=8;" parent="1" vertex="1">
                    <mxGeometry x="226.75" y="347" width="313.25" height="20" as="geometry"/>
                </mxCell>
                <mxCell id="S5-y5zS6l2NAs_fPD0nN-63" style="edgeStyle=none;curved=1;html=1;endArrow=classic;endFill=1;startSize=4;endSize=4;dashed=1;" parent="1" edge="1">
                    <mxGeometry relative="1" as="geometry">
                        <mxPoint x="177.5" y="566.29" as="targetPoint"/>
                        <mxPoint x="980" y="566" as="sourcePoint"/>
                    </mxGeometry>
                </mxCell>
                <mxCell id="S5-y5zS6l2NAs_fPD0nN-64" value="" style="edgeStyle=none;html=1;dashed=1;dashPattern=8 8;endArrow=none;endFill=0;entryX=0.5;entryY=0;entryDx=0;entryDy=0;entryPerimeter=0;" parent="1" target="S5-y5zS6l2NAs_fPD0nN-6" edge="1">
                    <mxGeometry relative="1" as="geometry">
                        <mxPoint x="174.28999999999996" y="570" as="sourcePoint"/>
                        <mxPoint x="170" y="980" as="targetPoint"/>
                    </mxGeometry>
                </mxCell>
                <mxCell id="S5-y5zS6l2NAs_fPD0nN-65" value="" style="endArrow=classic;html=1;endSize=4;startSize=4;entryX=0;entryY=0;entryDx=0;entryDy=0;" parent="1" target="S5-y5zS6l2NAs_fPD0nN-66" edge="1">
                    <mxGeometry width="50" height="50" relative="1" as="geometry">
                        <mxPoint x="226.75" y="701" as="sourcePoint"/>
                        <mxPoint x="419.25" y="702" as="targetPoint"/>
                    </mxGeometry>
                </mxCell>
                <mxCell id="S5-y5zS6l2NAs_fPD0nN-66" value="" style="rounded=0;whiteSpace=wrap;html=1;" parent="1" vertex="1">
                    <mxGeometry x="369.5" y="701" width="5" height="40" as="geometry"/>
                </mxCell>
                <mxCell id="S5-y5zS6l2NAs_fPD0nN-67" value="" style="edgeStyle=none;html=1;entryX=0.5;entryY=0;entryDx=0;entryDy=0;dashed=1;dashPattern=8 8;endArrow=none;endFill=0;startArrow=none;" parent="1" edge="1">
                    <mxGeometry relative="1" as="geometry">
                        <mxPoint x="369.5899999999999" y="717.1042471042474" as="sourcePoint"/>
                        <mxPoint x="369.4999999999998" y="717" as="targetPoint"/>
                    </mxGeometry>
                </mxCell>
                <mxCell id="S5-y5zS6l2NAs_fPD0nN-68" value="" style="rounded=0;whiteSpace=wrap;html=1;" parent="1" vertex="1">
                    <mxGeometry x="221.75" y="700" width="5" height="120" as="geometry"/>
                </mxCell>
                <mxCell id="S5-y5zS6l2NAs_fPD0nN-69" value="" style="edgeStyle=none;html=1;dashed=1;dashPattern=8 8;endArrow=none;endFill=0;entryX=0.5;entryY=0;entryDx=0;entryDy=0;" parent="1" target="S5-y5zS6l2NAs_fPD0nN-68" edge="1">
                    <mxGeometry relative="1" as="geometry">
                        <mxPoint x="225" y="100" as="sourcePoint"/>
                        <mxPoint x="225.5" y="280" as="targetPoint"/>
                    </mxGeometry>
                </mxCell>
                <mxCell id="S5-y5zS6l2NAs_fPD0nN-70" value="&lt;span style=&quot;color: rgb(0, 0, 0); font-family: Helvetica; font-size: 12px; font-style: normal; font-variant-ligatures: normal; font-variant-caps: normal; font-weight: 400; letter-spacing: normal; orphans: 2; text-align: center; text-indent: 0px; text-transform: none; widows: 2; word-spacing: 0px; -webkit-text-stroke-width: 0px; background-color: rgb(251, 251, 251); text-decoration-thickness: initial; text-decoration-style: initial; text-decoration-color: initial; float: none; display: inline !important;&quot;&gt;Login as Staff&lt;/span&gt;" style="text;whiteSpace=wrap;html=1;fontSize=8;" parent="1" vertex="1">
                    <mxGeometry x="290" y="670" width="120" height="40" as="geometry"/>
                </mxCell>
                <mxCell id="S5-y5zS6l2NAs_fPD0nN-71" value="" style="edgeStyle=none;html=1;dashed=1;dashPattern=8 8;endArrow=none;endFill=0;entryX=0.5;entryY=0;entryDx=0;entryDy=0;" parent="1" target="S5-y5zS6l2NAs_fPD0nN-66" edge="1">
                    <mxGeometry relative="1" as="geometry">
                        <mxPoint x="371.9999999999998" y="490" as="sourcePoint"/>
                        <mxPoint x="460" y="670" as="targetPoint"/>
                    </mxGeometry>
                </mxCell>
                <mxCell id="S5-y5zS6l2NAs_fPD0nN-72" value="" style="edgeStyle=none;html=1;entryX=0.5;entryY=0;entryDx=0;entryDy=0;dashed=1;dashPattern=8 8;endArrow=none;endFill=0;startArrow=none;" parent="1" edge="1">
                    <mxGeometry relative="1" as="geometry">
                        <mxPoint x="369.5899999999999" y="716.1042471042474" as="sourcePoint"/>
                        <mxPoint x="369.4999999999998" y="716" as="targetPoint"/>
                    </mxGeometry>
                </mxCell>
                <mxCell id="S5-y5zS6l2NAs_fPD0nN-73" value="" style="endArrow=classic;html=1;endSize=4;startSize=4;entryX=0;entryY=0;entryDx=0;entryDy=0;" parent="1" edge="1">
                    <mxGeometry width="50" height="50" relative="1" as="geometry">
                        <mxPoint x="374.5899999999999" y="739" as="sourcePoint"/>
                        <mxPoint x="568.0900000000001" y="739" as="targetPoint"/>
                    </mxGeometry>
                </mxCell>
                <mxCell id="S5-y5zS6l2NAs_fPD0nN-74" value="" style="edgeStyle=none;html=1;entryX=0.5;entryY=0;entryDx=0;entryDy=0;dashed=1;dashPattern=8 8;endArrow=none;endFill=0;startArrow=none;" parent="1" edge="1">
                    <mxGeometry relative="1" as="geometry">
                        <mxPoint x="568.0900000000001" y="756.1042471042474" as="sourcePoint"/>
                        <mxPoint x="568" y="756" as="targetPoint"/>
                    </mxGeometry>
                </mxCell>
                <mxCell id="S5-y5zS6l2NAs_fPD0nN-75" value="" style="rounded=0;whiteSpace=wrap;html=1;" parent="1" vertex="1">
                    <mxGeometry x="568" y="740" width="5" height="40" as="geometry"/>
                </mxCell>
                <mxCell id="S5-y5zS6l2NAs_fPD0nN-76" value="" style="edgeStyle=none;html=1;entryX=0.5;entryY=0;entryDx=0;entryDy=0;dashed=1;dashPattern=8 8;endArrow=none;endFill=0;startArrow=none;" parent="1" edge="1">
                    <mxGeometry relative="1" as="geometry">
                        <mxPoint x="568.0900000000001" y="756.1042471042474" as="sourcePoint"/>
                        <mxPoint x="568" y="756" as="targetPoint"/>
                    </mxGeometry>
                </mxCell>
                <mxCell id="S5-y5zS6l2NAs_fPD0nN-77" value="&lt;span style=&quot;&quot;&gt;&lt;font style=&quot;font-size: 11px;&quot;&gt;Online control&lt;/font&gt;&lt;br&gt;&lt;/span&gt;" style="text;html=1;align=center;verticalAlign=middle;resizable=0;points=[];autosize=1;strokeColor=none;fillColor=none;" parent="1" vertex="1">
                    <mxGeometry x="478" y="710" width="90" height="30" as="geometry"/>
                </mxCell>
                <mxCell id="S5-y5zS6l2NAs_fPD0nN-78" value="" style="rounded=0;whiteSpace=wrap;html=1;" parent="1" vertex="1">
                    <mxGeometry x="767.5" y="779" width="3.5" height="40" as="geometry"/>
                </mxCell>
                <mxCell id="S5-y5zS6l2NAs_fPD0nN-79" value="" style="endArrow=classic;html=1;endSize=4;startSize=4;entryX=0;entryY=0;entryDx=0;entryDy=0;" parent="1" target="S5-y5zS6l2NAs_fPD0nN-78" edge="1">
                    <mxGeometry width="50" height="50" relative="1" as="geometry">
                        <mxPoint x="574" y="779" as="sourcePoint"/>
                        <mxPoint x="886.5" y="779" as="targetPoint"/>
                    </mxGeometry>
                </mxCell>
                <mxCell id="S5-y5zS6l2NAs_fPD0nN-80" value="" style="rounded=0;whiteSpace=wrap;html=1;" parent="1" vertex="1">
                    <mxGeometry x="767.5" y="779" width="5" height="40" as="geometry"/>
                </mxCell>
                <mxCell id="S5-y5zS6l2NAs_fPD0nN-81" value="&lt;span style=&quot;&quot;&gt;Payment information&lt;/span&gt;" style="text;html=1;align=center;verticalAlign=middle;resizable=0;points=[];autosize=1;strokeColor=none;fillColor=none;" parent="1" vertex="1">
                    <mxGeometry x="642.5" y="754" width="130" height="30" as="geometry"/>
                </mxCell>
                <mxCell id="S5-y5zS6l2NAs_fPD0nN-82" value="" style="edgeStyle=none;html=1;dashed=1;dashPattern=8 8;endArrow=none;endFill=0;entryX=0.5;entryY=0;entryDx=0;entryDy=0;" parent="1" target="S5-y5zS6l2NAs_fPD0nN-75" edge="1">
                    <mxGeometry relative="1" as="geometry">
                        <mxPoint x="570.4099999999999" y="528" as="sourcePoint"/>
                        <mxPoint x="600" y="730" as="targetPoint"/>
                    </mxGeometry>
                </mxCell>
                <mxCell id="S5-y5zS6l2NAs_fPD0nN-83" value="" style="rounded=0;whiteSpace=wrap;html=1;" parent="1" vertex="1">
                    <mxGeometry x="767.5" y="779" width="3.5" height="40" as="geometry"/>
                </mxCell>
                <mxCell id="S5-y5zS6l2NAs_fPD0nN-84" value="" style="rounded=0;whiteSpace=wrap;html=1;" parent="1" vertex="1">
                    <mxGeometry x="767.5" y="779" width="5" height="40" as="geometry"/>
                </mxCell>
                <mxCell id="S5-y5zS6l2NAs_fPD0nN-85" value="" style="edgeStyle=none;html=1;dashed=1;dashPattern=8 8;endArrow=none;endFill=0;exitX=0.419;exitY=1.082;exitDx=0;exitDy=0;exitPerimeter=0;entryX=0.5;entryY=0;entryDx=0;entryDy=0;" parent="1" target="S5-y5zS6l2NAs_fPD0nN-84" edge="1">
                    <mxGeometry relative="1" as="geometry">
                        <mxPoint x="769.27" y="281.23" as="sourcePoint"/>
                        <mxPoint x="768.66" y="418.77" as="targetPoint"/>
                    </mxGeometry>
                </mxCell>
                <mxCell id="S5-y5zS6l2NAs_fPD0nN-86" style="edgeStyle=none;curved=1;html=1;endArrow=classic;endFill=1;startSize=4;endSize=4;dashed=1;exitX=0.5;exitY=1;exitDx=0;exitDy=0;entryX=0.5;entryY=1;entryDx=0;entryDy=0;startArrow=none;" parent="1" source="S5-y5zS6l2NAs_fPD0nN-123" target="S5-y5zS6l2NAs_fPD0nN-68" edge="1">
                    <mxGeometry relative="1" as="geometry">
                        <mxPoint x="226.75" y="798.6999999999997" as="targetPoint"/>
                        <mxPoint x="1029.25" y="798.4099999999997" as="sourcePoint"/>
                    </mxGeometry>
                </mxCell>
                <mxCell id="S5-y5zS6l2NAs_fPD0nN-87" value="" style="edgeStyle=none;html=1;dashed=1;dashPattern=8 8;endArrow=none;endFill=0;entryX=0.5;entryY=0;entryDx=0;entryDy=0;entryPerimeter=0;" parent="1" target="S5-y5zS6l2NAs_fPD0nN-7" edge="1">
                    <mxGeometry relative="1" as="geometry">
                        <mxPoint x="224.41000000000008" y="820" as="sourcePoint"/>
                        <mxPoint x="310" y="940" as="targetPoint"/>
                    </mxGeometry>
                </mxCell>
                <mxCell id="S5-y5zS6l2NAs_fPD0nN-88" value="Authentication Subsystem" style="rounded=0;whiteSpace=wrap;html=1;shadow=0;" parent="1" vertex="1">
                    <mxGeometry x="290" y="1020" width="160" height="30" as="geometry"/>
                </mxCell>
                <mxCell id="S5-y5zS6l2NAs_fPD0nN-89" value="Report &amp;amp; Analytic Subsystem" style="rounded=0;whiteSpace=wrap;html=1;shadow=0;" parent="1" vertex="1">
                    <mxGeometry x="900" y="1020" width="160" height="30" as="geometry"/>
                </mxCell>
                <mxCell id="S5-y5zS6l2NAs_fPD0nN-90" value="Payment Management Subsystem" style="rounded=0;whiteSpace=wrap;html=1;shadow=0;" parent="1" vertex="1">
                    <mxGeometry x="690" y="1020" width="190" height="30" as="geometry"/>
                </mxCell>
                <mxCell id="S5-y5zS6l2NAs_fPD0nN-91" value="Room Management Subsystem" style="rounded=0;whiteSpace=wrap;html=1;shadow=0;" parent="1" vertex="1">
                    <mxGeometry x="480" y="1020" width="190" height="30" as="geometry"/>
                </mxCell>
                <mxCell id="S5-y5zS6l2NAs_fPD0nN-92" value="" style="edgeStyle=none;html=1;dashed=1;dashPattern=8 8;endArrow=none;endFill=0;exitX=0.5;exitY=1;exitDx=0;exitDy=0;" parent="1" source="S5-y5zS6l2NAs_fPD0nN-66" edge="1">
                    <mxGeometry relative="1" as="geometry">
                        <mxPoint x="382" y="500" as="sourcePoint"/>
                        <mxPoint x="371.9999999999998" y="1020" as="targetPoint"/>
                    </mxGeometry>
                </mxCell>
                <mxCell id="S5-y5zS6l2NAs_fPD0nN-93" value="" style="edgeStyle=none;html=1;dashed=1;dashPattern=8 8;endArrow=none;endFill=0;entryX=0.474;entryY=0.333;entryDx=0;entryDy=0;entryPerimeter=0;" parent="1" target="S5-y5zS6l2NAs_fPD0nN-91" edge="1">
                    <mxGeometry relative="1" as="geometry">
                        <mxPoint x="569.9099999999999" y="790" as="sourcePoint"/>
                        <mxPoint x="570" y="1010" as="targetPoint"/>
                    </mxGeometry>
                </mxCell>
                <mxCell id="S5-y5zS6l2NAs_fPD0nN-94" value="" style="edgeStyle=none;html=1;dashed=1;dashPattern=8 8;endArrow=none;endFill=0;entryX=0.42;entryY=-0.09;entryDx=0;entryDy=0;entryPerimeter=0;" parent="1" target="S5-y5zS6l2NAs_fPD0nN-90" edge="1">
                    <mxGeometry relative="1" as="geometry">
                        <mxPoint x="770" y="830" as="sourcePoint"/>
                        <mxPoint x="770" y="1040.9999999999998" as="targetPoint"/>
                    </mxGeometry>
                </mxCell>
                <mxCell id="S5-y5zS6l2NAs_fPD0nN-95" value="&lt;span style=&quot;&quot;&gt;Room occupancy rate/&lt;br&gt;&lt;/span&gt;&lt;span style=&quot;&quot;&gt;College maintenance report/&lt;br&gt;&lt;/span&gt;&lt;span style=&quot;&quot;&gt;Quota active application success rate&lt;/span&gt;&lt;span style=&quot;&quot;&gt;&lt;br&gt;&lt;/span&gt;" style="text;html=1;align=center;verticalAlign=middle;resizable=0;points=[];autosize=1;strokeColor=none;fillColor=none;" parent="1" vertex="1">
                    <mxGeometry x="772.5" y="560" width="220" height="60" as="geometry"/>
                </mxCell>
                <mxCell id="S5-y5zS6l2NAs_fPD0nN-96" style="edgeStyle=none;curved=1;html=1;exitX=0;exitY=1;exitDx=0;exitDy=0;endArrow=classic;endFill=1;startSize=4;endSize=4;dashed=1;" parent="1" edge="1">
                    <mxGeometry relative="1" as="geometry">
                        <mxPoint x="227" y="258" as="targetPoint"/>
                        <mxPoint x="764.5" y="262.5" as="sourcePoint"/>
                    </mxGeometry>
                </mxCell>
                <mxCell id="S5-y5zS6l2NAs_fPD0nN-97" value="Payment receipt &amp;amp; history" style="text;html=1;align=center;verticalAlign=middle;resizable=0;points=[];autosize=1;strokeColor=none;fillColor=none;" parent="1" vertex="1">
                    <mxGeometry x="612.5" y="255" width="160" height="30" as="geometry"/>
                </mxCell>
                <mxCell id="S5-y5zS6l2NAs_fPD0nN-98" value="Payment notification" style="text;html=1;align=center;verticalAlign=middle;resizable=0;points=[];autosize=1;strokeColor=none;fillColor=none;" parent="1" vertex="1">
                    <mxGeometry x="642.5" y="240" width="130" height="30" as="geometry"/>
                </mxCell>
                <mxCell id="S5-y5zS6l2NAs_fPD0nN-99" style="edgeStyle=none;curved=1;html=1;exitX=1;exitY=0.25;exitDx=0;exitDy=0;endArrow=classic;endFill=1;startSize=4;endSize=4;entryX=1;entryY=0.75;entryDx=0;entryDy=0;" parent="1" edge="1">
                    <mxGeometry relative="1" as="geometry">
                        <mxPoint x="374.5" y="189" as="targetPoint"/>
                        <Array as="points">
                            <mxPoint x="393" y="160"/>
                            <mxPoint x="403" y="170"/>
                            <mxPoint x="393" y="190"/>
                        </Array>
                        <mxPoint x="374.94000000000005" y="169" as="sourcePoint"/>
                    </mxGeometry>
                </mxCell>
                <mxCell id="S5-y5zS6l2NAs_fPD0nN-100" value="Correct &lt;br&gt;password" style="text;html=1;align=center;verticalAlign=middle;resizable=0;points=[];autosize=1;strokeColor=none;fillColor=none;" parent="1" vertex="1">
                    <mxGeometry x="390" y="150" width="70" height="40" as="geometry"/>
                </mxCell>
                <mxCell id="S5-y5zS6l2NAs_fPD0nN-101" style="edgeStyle=none;curved=1;html=1;exitX=0;exitY=1;exitDx=0;exitDy=0;endArrow=classic;endFill=1;startSize=4;endSize=4;dashed=1;" parent="1" edge="1">
                    <mxGeometry relative="1" as="geometry">
                        <mxPoint x="60" y="203" as="targetPoint"/>
                        <mxPoint x="366.25" y="202.5" as="sourcePoint"/>
                    </mxGeometry>
                </mxCell>
                <mxCell id="S5-y5zS6l2NAs_fPD0nN-102" value="Incorrect &lt;br&gt;password" style="text;html=1;align=center;verticalAlign=middle;resizable=0;points=[];autosize=1;strokeColor=none;fillColor=none;" parent="1" vertex="1">
                    <mxGeometry x="304.5" y="163" width="70" height="40" as="geometry"/>
                </mxCell>
                <mxCell id="S5-y5zS6l2NAs_fPD0nN-103" style="edgeStyle=none;curved=1;html=1;exitX=1;exitY=0.25;exitDx=0;exitDy=0;endArrow=classic;endFill=1;startSize=4;endSize=4;entryX=1;entryY=0.75;entryDx=0;entryDy=0;" parent="1" edge="1">
                    <mxGeometry relative="1" as="geometry">
                        <mxPoint x="573" y="229" as="targetPoint"/>
                        <Array as="points">
                            <mxPoint x="591.5" y="200"/>
                            <mxPoint x="601.5" y="210"/>
                            <mxPoint x="591.5" y="230"/>
                        </Array>
                        <mxPoint x="573.44" y="209" as="sourcePoint"/>
                    </mxGeometry>
                </mxCell>
                <mxCell id="S5-y5zS6l2NAs_fPD0nN-104" value="&lt;span style=&quot;&quot;&gt;Real time room availability/&lt;br&gt;&lt;/span&gt;&lt;span style=&quot;&quot;&gt;Room preferences/&lt;br&gt;&lt;/span&gt;&lt;span style=&quot;&quot;&gt;Room allocation&lt;/span&gt;&lt;span style=&quot;&quot;&gt;&lt;br&gt;&lt;/span&gt;" style="text;html=1;align=center;verticalAlign=middle;resizable=0;points=[];autosize=1;strokeColor=none;fillColor=none;" parent="1" vertex="1">
                    <mxGeometry x="568" y="150" width="170" height="60" as="geometry"/>
                </mxCell>
                <mxCell id="S5-y5zS6l2NAs_fPD0nN-105" style="edgeStyle=none;curved=1;html=1;endArrow=classic;endFill=1;startSize=4;endSize=4;dashed=1;" parent="1" edge="1">
                    <mxGeometry relative="1" as="geometry">
                        <mxPoint x="174" y="240" as="targetPoint"/>
                        <mxPoint x="570" y="240" as="sourcePoint"/>
                    </mxGeometry>
                </mxCell>
                <mxCell id="S5-y5zS6l2NAs_fPD0nN-106" value="&lt;span style=&quot;&quot;&gt;Updated room allocation&lt;br&gt;&lt;/span&gt;" style="text;html=1;align=center;verticalAlign=middle;resizable=0;points=[];autosize=1;strokeColor=none;fillColor=none;" parent="1" vertex="1">
                    <mxGeometry x="423" y="213" width="150" height="30" as="geometry"/>
                </mxCell>
                <mxCell id="S5-y5zS6l2NAs_fPD0nN-107" style="edgeStyle=none;curved=1;html=1;exitX=1;exitY=0.25;exitDx=0;exitDy=0;endArrow=classic;endFill=1;startSize=4;endSize=4;entryX=1;entryY=0.75;entryDx=0;entryDy=0;" parent="1" edge="1">
                    <mxGeometry relative="1" as="geometry">
                        <mxPoint x="770" y="269" as="targetPoint"/>
                        <Array as="points">
                            <mxPoint x="788.5" y="240"/>
                            <mxPoint x="798.5" y="250"/>
                            <mxPoint x="788.5" y="270"/>
                        </Array>
                        <mxPoint x="770.44" y="249" as="sourcePoint"/>
                    </mxGeometry>
                </mxCell>
                <mxCell id="S5-y5zS6l2NAs_fPD0nN-108" value="Payment method" style="text;html=1;align=center;verticalAlign=middle;resizable=0;points=[];autosize=1;strokeColor=none;fillColor=none;" parent="1" vertex="1">
                    <mxGeometry x="807.5" y="245" width="110" height="30" as="geometry"/>
                </mxCell>
                <mxCell id="S5-y5zS6l2NAs_fPD0nN-109" style="edgeStyle=none;curved=1;html=1;exitX=1;exitY=0.25;exitDx=0;exitDy=0;endArrow=classic;endFill=1;startSize=4;endSize=4;entryX=1;entryY=0.75;entryDx=0;entryDy=0;" parent="1" edge="1">
                    <mxGeometry relative="1" as="geometry">
                        <mxPoint x="374.5" y="339" as="targetPoint"/>
                        <Array as="points">
                            <mxPoint x="393" y="310"/>
                            <mxPoint x="403" y="320"/>
                            <mxPoint x="393" y="340"/>
                        </Array>
                        <mxPoint x="374.94000000000005" y="319" as="sourcePoint"/>
                    </mxGeometry>
                </mxCell>
                <mxCell id="S5-y5zS6l2NAs_fPD0nN-110" value="Correct &lt;br&gt;password" style="text;html=1;align=center;verticalAlign=middle;resizable=0;points=[];autosize=1;strokeColor=none;fillColor=none;" parent="1" vertex="1">
                    <mxGeometry x="390" y="300" width="70" height="40" as="geometry"/>
                </mxCell>
                <mxCell id="S5-y5zS6l2NAs_fPD0nN-111" value="" style="edgeStyle=none;html=1;entryX=0.5;entryY=0;entryDx=0;entryDy=0;dashed=1;dashPattern=8 8;endArrow=none;endFill=0;startArrow=none;" parent="1" edge="1">
                    <mxGeometry relative="1" as="geometry">
                        <mxPoint x="368.5899999999999" y="324.6042471042475" as="sourcePoint"/>
                        <mxPoint x="368.49999999999955" y="324.5" as="targetPoint"/>
                    </mxGeometry>
                </mxCell>
                <mxCell id="S5-y5zS6l2NAs_fPD0nN-112" style="edgeStyle=none;curved=1;html=1;exitX=0;exitY=1;exitDx=0;exitDy=0;endArrow=classic;endFill=1;startSize=4;endSize=4;dashed=1;" parent="1" edge="1">
                    <mxGeometry relative="1" as="geometry">
                        <mxPoint x="120" y="348" as="targetPoint"/>
                        <mxPoint x="365.3399999999999" y="347" as="sourcePoint"/>
                    </mxGeometry>
                </mxCell>
                <mxCell id="S5-y5zS6l2NAs_fPD0nN-113" value="Incorrect &lt;br&gt;password" style="text;html=1;align=center;verticalAlign=middle;resizable=0;points=[];autosize=1;strokeColor=none;fillColor=none;" parent="1" vertex="1">
                    <mxGeometry x="299.5" y="310" width="70" height="40" as="geometry"/>
                </mxCell>
                <mxCell id="S5-y5zS6l2NAs_fPD0nN-114" style="edgeStyle=none;curved=1;html=1;exitX=1;exitY=0.25;exitDx=0;exitDy=0;endArrow=classic;endFill=1;startSize=4;endSize=4;entryX=1;entryY=0.75;entryDx=0;entryDy=0;" parent="1" edge="1">
                    <mxGeometry relative="1" as="geometry">
                        <mxPoint x="374.5" y="479" as="targetPoint"/>
                        <Array as="points">
                            <mxPoint x="393" y="450"/>
                            <mxPoint x="403" y="460"/>
                            <mxPoint x="393" y="480"/>
                        </Array>
                        <mxPoint x="374.94000000000005" y="459" as="sourcePoint"/>
                    </mxGeometry>
                </mxCell>
                <mxCell id="S5-y5zS6l2NAs_fPD0nN-115" value="Correct &lt;br&gt;password" style="text;html=1;align=center;verticalAlign=middle;resizable=0;points=[];autosize=1;strokeColor=none;fillColor=none;" parent="1" vertex="1">
                    <mxGeometry x="390" y="440" width="70" height="40" as="geometry"/>
                </mxCell>
                <mxCell id="S5-y5zS6l2NAs_fPD0nN-116" style="edgeStyle=none;curved=1;html=1;exitX=0;exitY=1;exitDx=0;exitDy=0;endArrow=classic;endFill=1;startSize=4;endSize=4;dashed=1;" parent="1" edge="1">
                    <mxGeometry relative="1" as="geometry">
                        <mxPoint x="180" y="488" as="targetPoint"/>
                        <mxPoint x="369.5" y="487" as="sourcePoint"/>
                    </mxGeometry>
                </mxCell>
                <mxCell id="S5-y5zS6l2NAs_fPD0nN-117" value="Incorrect &lt;br&gt;password" style="text;html=1;align=center;verticalAlign=middle;resizable=0;points=[];autosize=1;strokeColor=none;fillColor=none;" parent="1" vertex="1">
                    <mxGeometry x="299.5" y="448" width="70" height="40" as="geometry"/>
                </mxCell>
                <mxCell id="S5-y5zS6l2NAs_fPD0nN-118" style="edgeStyle=none;curved=1;html=1;exitX=1;exitY=0.25;exitDx=0;exitDy=0;endArrow=classic;endFill=1;startSize=4;endSize=4;entryX=1;entryY=0.75;entryDx=0;entryDy=0;" parent="1" edge="1">
                    <mxGeometry relative="1" as="geometry">
                        <mxPoint x="374.5" y="729" as="targetPoint"/>
                        <Array as="points">
                            <mxPoint x="393" y="700"/>
                            <mxPoint x="403" y="710"/>
                            <mxPoint x="393" y="730"/>
                        </Array>
                        <mxPoint x="374.94000000000005" y="709" as="sourcePoint"/>
                    </mxGeometry>
                </mxCell>
                <mxCell id="S5-y5zS6l2NAs_fPD0nN-119" value="Correct &lt;br&gt;password" style="text;html=1;align=center;verticalAlign=middle;resizable=0;points=[];autosize=1;strokeColor=none;fillColor=none;" parent="1" vertex="1">
                    <mxGeometry x="390" y="690" width="70" height="40" as="geometry"/>
                </mxCell>
                <mxCell id="S5-y5zS6l2NAs_fPD0nN-120" style="edgeStyle=none;curved=1;html=1;exitX=0;exitY=1;exitDx=0;exitDy=0;endArrow=classic;endFill=1;startSize=4;endSize=4;dashed=1;" parent="1" edge="1">
                    <mxGeometry relative="1" as="geometry">
                        <mxPoint x="230" y="740" as="targetPoint"/>
                        <mxPoint x="367" y="739" as="sourcePoint"/>
                    </mxGeometry>
                </mxCell>
                <mxCell id="S5-y5zS6l2NAs_fPD0nN-121" value="Incorrect &lt;br&gt;password" style="text;html=1;align=center;verticalAlign=middle;resizable=0;points=[];autosize=1;strokeColor=none;fillColor=none;" parent="1" vertex="1">
                    <mxGeometry x="304.5" y="701" width="70" height="40" as="geometry"/>
                </mxCell>
                <mxCell id="S5-y5zS6l2NAs_fPD0nN-122" value="" style="edgeStyle=none;curved=1;html=1;endArrow=none;endFill=1;startSize=4;endSize=4;dashed=1;exitX=0.5;exitY=1;exitDx=0;exitDy=0;entryX=0.5;entryY=1;entryDx=0;entryDy=0;" parent="1" source="S5-y5zS6l2NAs_fPD0nN-84" target="S5-y5zS6l2NAs_fPD0nN-123" edge="1">
                    <mxGeometry relative="1" as="geometry">
                        <mxPoint x="224.25" y="820" as="targetPoint"/>
                        <mxPoint x="770" y="819" as="sourcePoint"/>
                    </mxGeometry>
                </mxCell>
                <mxCell id="S5-y5zS6l2NAs_fPD0nN-123" value="Payment receipt &amp;amp; history" style="text;html=1;align=center;verticalAlign=middle;resizable=0;points=[];autosize=1;strokeColor=none;fillColor=none;" parent="1" vertex="1">
                    <mxGeometry x="612.5" y="790" width="160" height="30" as="geometry"/>
                </mxCell>
                <mxCell id="S5-y5zS6l2NAs_fPD0nN-124" value="&lt;span style=&quot;&quot;&gt;Maintenance request / tracking&lt;br&gt;&lt;/span&gt;&lt;span style=&quot;&quot;&gt;Check in / out&lt;br&gt;&lt;/span&gt;&lt;span style=&quot;&quot;&gt;Electrical appliances registration&lt;br&gt;&lt;/span&gt;&lt;span style=&quot;&quot;&gt;Room changing / cancellation&lt;/span&gt;&lt;span style=&quot;&quot;&gt;&lt;br&gt;&lt;/span&gt;" style="text;html=1;align=center;verticalAlign=middle;resizable=0;points=[];autosize=1;strokeColor=none;fillColor=none;" parent="1" vertex="1">
                    <mxGeometry x="560" y="675" width="200" height="70" as="geometry"/>
                </mxCell>
                <mxCell id="S5-y5zS6l2NAs_fPD0nN-125" style="edgeStyle=none;curved=1;html=1;exitX=1;exitY=0.25;exitDx=0;exitDy=0;endArrow=classic;endFill=1;startSize=4;endSize=4;entryX=1;entryY=0.75;entryDx=0;entryDy=0;" parent="1" edge="1">
                    <mxGeometry relative="1" as="geometry">
                        <mxPoint x="573" y="769" as="targetPoint"/>
                        <Array as="points">
                            <mxPoint x="591.5" y="740"/>
                            <mxPoint x="601.5" y="750"/>
                            <mxPoint x="591.5" y="770"/>
                        </Array>
                        <mxPoint x="573.44" y="749" as="sourcePoint"/>
                    </mxGeometry>
                </mxCell>
            </root>
        </mxGraphModel>
    </diagram>
    <diagram id="iFQRDJOVOMvrm3s8KDK2" name="activity_diagram">
        <mxGraphModel dx="816" dy="440" grid="1" gridSize="10" guides="1" tooltips="1" connect="1" arrows="1" fold="1" page="1" pageScale="1" pageWidth="850" pageHeight="1100" math="0" shadow="0">
            <root>
                <mxCell id="0"/>
                <mxCell id="1" parent="0"/>
                <mxCell id="08bzLbOTh_HCko4q4lLe-1" value="" style="swimlane;startSize=40;fontSize=19;fillColor=#1ba1e2;fontColor=#ffffff;strokeColor=#006EAF;" parent="1" vertex="1">
                    <mxGeometry x="60" y="10" width="220" height="972.5" as="geometry"/>
                </mxCell>
                <mxCell id="08bzLbOTh_HCko4q4lLe-4" value="&lt;font color=&quot;#000000&quot;&gt;Student&lt;/font&gt;" style="text;html=1;strokeColor=none;fillColor=none;align=center;verticalAlign=middle;whiteSpace=wrap;rounded=0;fontSize=19;fontStyle=1" parent="08bzLbOTh_HCko4q4lLe-1" vertex="1">
                    <mxGeometry x="70.78" y="-5" width="70" height="40" as="geometry"/>
                </mxCell>
                <mxCell id="08bzLbOTh_HCko4q4lLe-7" value="" style="edgeStyle=none;html=1;fontSize=12;" parent="08bzLbOTh_HCko4q4lLe-1" source="08bzLbOTh_HCko4q4lLe-8" target="08bzLbOTh_HCko4q4lLe-14" edge="1">
                    <mxGeometry relative="1" as="geometry"/>
                </mxCell>
                <mxCell id="08bzLbOTh_HCko4q4lLe-8" value="&lt;font style=&quot;font-size: 12px;&quot;&gt;log in to the system&lt;/font&gt;" style="ellipse;whiteSpace=wrap;html=1;fontSize=19;" parent="08bzLbOTh_HCko4q4lLe-1" vertex="1">
                    <mxGeometry x="44.38" y="100" width="121.25" height="60" as="geometry"/>
                </mxCell>
                <mxCell id="08bzLbOTh_HCko4q4lLe-9" value="" style="edgeStyle=none;html=1;fontSize=19;" parent="08bzLbOTh_HCko4q4lLe-1" source="08bzLbOTh_HCko4q4lLe-10" target="08bzLbOTh_HCko4q4lLe-8" edge="1">
                    <mxGeometry relative="1" as="geometry"/>
                </mxCell>
                <mxCell id="08bzLbOTh_HCko4q4lLe-10" value="" style="ellipse;whiteSpace=wrap;html=1;aspect=fixed;fontSize=19;" parent="08bzLbOTh_HCko4q4lLe-1" vertex="1">
                    <mxGeometry x="95" y="50" width="20" height="20" as="geometry"/>
                </mxCell>
                <mxCell id="08bzLbOTh_HCko4q4lLe-11" value="" style="edgeStyle=none;html=1;fontSize=12;" parent="08bzLbOTh_HCko4q4lLe-1" source="08bzLbOTh_HCko4q4lLe-12" target="08bzLbOTh_HCko4q4lLe-30" edge="1">
                    <mxGeometry relative="1" as="geometry"/>
                </mxCell>
                <mxCell id="08bzLbOTh_HCko4q4lLe-12" value="&lt;font style=&quot;font-size: 12px;&quot;&gt;review the student information&amp;nbsp;&lt;/font&gt;" style="ellipse;whiteSpace=wrap;html=1;fontSize=19;" parent="08bzLbOTh_HCko4q4lLe-1" vertex="1">
                    <mxGeometry x="304" y="110" width="121.25" height="60" as="geometry"/>
                </mxCell>
                <mxCell id="08bzLbOTh_HCko4q4lLe-13" value="" style="edgeStyle=none;html=1;fontSize=12;entryX=0;entryY=0.5;entryDx=0;entryDy=0;" parent="08bzLbOTh_HCko4q4lLe-1" source="08bzLbOTh_HCko4q4lLe-14" target="08bzLbOTh_HCko4q4lLe-12" edge="1">
                    <mxGeometry relative="1" as="geometry"/>
                </mxCell>
                <mxCell id="08bzLbOTh_HCko4q4lLe-14" value="&lt;font style=&quot;font-size: 12px;&quot;&gt;request for room application&lt;/font&gt;" style="ellipse;whiteSpace=wrap;html=1;fontSize=19;" parent="08bzLbOTh_HCko4q4lLe-1" vertex="1">
                    <mxGeometry x="44.38" y="200" width="121.25" height="60" as="geometry"/>
                </mxCell>
                <mxCell id="08bzLbOTh_HCko4q4lLe-15" value="" style="edgeStyle=none;html=1;fontSize=12;" parent="08bzLbOTh_HCko4q4lLe-1" source="08bzLbOTh_HCko4q4lLe-16" target="08bzLbOTh_HCko4q4lLe-18" edge="1">
                    <mxGeometry relative="1" as="geometry"/>
                </mxCell>
                <mxCell id="08bzLbOTh_HCko4q4lLe-16" value="&lt;font style=&quot;font-size: 12px;&quot;&gt;check room availability and select room&lt;/font&gt;" style="ellipse;whiteSpace=wrap;html=1;fontSize=19;" parent="08bzLbOTh_HCko4q4lLe-1" vertex="1">
                    <mxGeometry x="37.2" y="300" width="135.62" height="60" as="geometry"/>
                </mxCell>
                <mxCell id="08bzLbOTh_HCko4q4lLe-17" value="" style="edgeStyle=none;html=1;fontSize=12;entryX=0;entryY=0.5;entryDx=0;entryDy=0;" parent="08bzLbOTh_HCko4q4lLe-1" source="08bzLbOTh_HCko4q4lLe-18" target="08bzLbOTh_HCko4q4lLe-32" edge="1">
                    <mxGeometry relative="1" as="geometry"/>
                </mxCell>
                <mxCell id="08bzLbOTh_HCko4q4lLe-18" value="&lt;span style=&quot;font-size: 12px;&quot;&gt;submit room application&lt;/span&gt;" style="ellipse;whiteSpace=wrap;html=1;fontSize=19;" parent="08bzLbOTh_HCko4q4lLe-1" vertex="1">
                    <mxGeometry x="37.190000000000005" y="400" width="135.62" height="60" as="geometry"/>
                </mxCell>
                <mxCell id="08bzLbOTh_HCko4q4lLe-19" value="" style="edgeStyle=none;html=1;fontSize=12;entryX=0;entryY=0.5;entryDx=0;entryDy=0;" parent="08bzLbOTh_HCko4q4lLe-1" source="08bzLbOTh_HCko4q4lLe-20" target="08bzLbOTh_HCko4q4lLe-40" edge="1">
                    <mxGeometry relative="1" as="geometry"/>
                </mxCell>
                <mxCell id="08bzLbOTh_HCko4q4lLe-20" value="&lt;span style=&quot;font-size: 12px;&quot;&gt;get room info and room key&lt;/span&gt;" style="ellipse;whiteSpace=wrap;html=1;fontSize=19;" parent="08bzLbOTh_HCko4q4lLe-1" vertex="1">
                    <mxGeometry x="44.38" y="500" width="122.8" height="60" as="geometry"/>
                </mxCell>
                <mxCell id="08bzLbOTh_HCko4q4lLe-21" value="" style="edgeStyle=none;html=1;fontSize=12;" parent="08bzLbOTh_HCko4q4lLe-1" source="08bzLbOTh_HCko4q4lLe-22" target="08bzLbOTh_HCko4q4lLe-25" edge="1">
                    <mxGeometry relative="1" as="geometry"/>
                </mxCell>
                <mxCell id="08bzLbOTh_HCko4q4lLe-22" value="&lt;span style=&quot;font-size: 12px;&quot;&gt;pay room fees&lt;/span&gt;" style="ellipse;whiteSpace=wrap;html=1;fontSize=19;" parent="08bzLbOTh_HCko4q4lLe-1" vertex="1">
                    <mxGeometry x="37.19" y="620" width="135.62" height="60" as="geometry"/>
                </mxCell>
                <mxCell id="08bzLbOTh_HCko4q4lLe-23" value="" style="edgeStyle=none;html=1;fontSize=12;" parent="08bzLbOTh_HCko4q4lLe-1" source="08bzLbOTh_HCko4q4lLe-25" target="08bzLbOTh_HCko4q4lLe-28" edge="1">
                    <mxGeometry relative="1" as="geometry"/>
                </mxCell>
                <mxCell id="08bzLbOTh_HCko4q4lLe-24" value="" style="edgeStyle=none;html=1;fontSize=12;" parent="08bzLbOTh_HCko4q4lLe-1" source="08bzLbOTh_HCko4q4lLe-25" target="08bzLbOTh_HCko4q4lLe-44" edge="1">
                    <mxGeometry relative="1" as="geometry"/>
                </mxCell>
                <mxCell id="08bzLbOTh_HCko4q4lLe-25" value="&lt;span style=&quot;font-size: 12px;&quot;&gt;report maintenance issues&lt;/span&gt;" style="ellipse;whiteSpace=wrap;html=1;fontSize=19;" parent="08bzLbOTh_HCko4q4lLe-1" vertex="1">
                    <mxGeometry x="37.97" y="720" width="135.62" height="60" as="geometry"/>
                </mxCell>
                <mxCell id="08bzLbOTh_HCko4q4lLe-26" value="" style="edgeStyle=none;html=1;fontSize=12;" parent="08bzLbOTh_HCko4q4lLe-1" source="08bzLbOTh_HCko4q4lLe-28" target="08bzLbOTh_HCko4q4lLe-47" edge="1">
                    <mxGeometry relative="1" as="geometry"/>
                </mxCell>
                <mxCell id="08bzLbOTh_HCko4q4lLe-27" value="" style="edgeStyle=none;html=1;fontSize=12;" parent="08bzLbOTh_HCko4q4lLe-1" source="08bzLbOTh_HCko4q4lLe-28" target="08bzLbOTh_HCko4q4lLe-48" edge="1">
                    <mxGeometry relative="1" as="geometry"/>
                </mxCell>
                <mxCell id="08bzLbOTh_HCko4q4lLe-28" value="&lt;span style=&quot;font-size: 12px;&quot;&gt;get to stay in new room&lt;/span&gt;" style="ellipse;whiteSpace=wrap;html=1;fontSize=19;" parent="08bzLbOTh_HCko4q4lLe-1" vertex="1">
                    <mxGeometry x="59.879999999999995" y="820" width="90.24" height="50" as="geometry"/>
                </mxCell>
                <mxCell id="08bzLbOTh_HCko4q4lLe-29" value="" style="edgeStyle=none;html=1;fontSize=12;entryX=1;entryY=0.5;entryDx=0;entryDy=0;" parent="08bzLbOTh_HCko4q4lLe-1" source="08bzLbOTh_HCko4q4lLe-30" target="08bzLbOTh_HCko4q4lLe-16" edge="1">
                    <mxGeometry relative="1" as="geometry"/>
                </mxCell>
                <mxCell id="08bzLbOTh_HCko4q4lLe-30" value="&lt;span style=&quot;font-size: 12px;&quot;&gt;show the room preferences based on student&lt;/span&gt;" style="ellipse;whiteSpace=wrap;html=1;fontSize=19;" parent="08bzLbOTh_HCko4q4lLe-1" vertex="1">
                    <mxGeometry x="304" y="210" width="130.75" height="70" as="geometry"/>
                </mxCell>
                <mxCell id="08bzLbOTh_HCko4q4lLe-31" value="" style="edgeStyle=none;html=1;fontSize=12;entryX=0.5;entryY=0;entryDx=0;entryDy=0;" parent="08bzLbOTh_HCko4q4lLe-1" source="08bzLbOTh_HCko4q4lLe-32" target="08bzLbOTh_HCko4q4lLe-35" edge="1">
                    <mxGeometry relative="1" as="geometry"/>
                </mxCell>
                <mxCell id="08bzLbOTh_HCko4q4lLe-32" value="&lt;span style=&quot;font-size: 12px;&quot;&gt;determine room requirement&lt;/span&gt;" style="ellipse;whiteSpace=wrap;html=1;fontSize=19;" parent="08bzLbOTh_HCko4q4lLe-1" vertex="1">
                    <mxGeometry x="313.5" y="320" width="121.25" height="60" as="geometry"/>
                </mxCell>
                <mxCell id="08bzLbOTh_HCko4q4lLe-33" value="" style="edgeStyle=none;html=1;fontSize=12;entryX=0.5;entryY=0;entryDx=0;entryDy=0;" parent="08bzLbOTh_HCko4q4lLe-1" source="08bzLbOTh_HCko4q4lLe-35" target="08bzLbOTh_HCko4q4lLe-37" edge="1">
                    <mxGeometry relative="1" as="geometry"/>
                </mxCell>
                <mxCell id="08bzLbOTh_HCko4q4lLe-34" value="" style="edgeStyle=none;html=1;fontSize=12;entryX=1;entryY=0.5;entryDx=0;entryDy=0;" parent="08bzLbOTh_HCko4q4lLe-1" source="08bzLbOTh_HCko4q4lLe-35" target="08bzLbOTh_HCko4q4lLe-20" edge="1">
                    <mxGeometry relative="1" as="geometry"/>
                </mxCell>
                <mxCell id="08bzLbOTh_HCko4q4lLe-35" value="&lt;font style=&quot;font-size: 12px;&quot;&gt;room assigment&lt;/font&gt;" style="ellipse;whiteSpace=wrap;html=1;fontSize=19;" parent="08bzLbOTh_HCko4q4lLe-1" vertex="1">
                    <mxGeometry x="313.5" y="420" width="121.25" height="60" as="geometry"/>
                </mxCell>
                <mxCell id="08bzLbOTh_HCko4q4lLe-36" value="YES" style="text;html=1;strokeColor=none;fillColor=none;align=center;verticalAlign=middle;whiteSpace=wrap;rounded=0;fontSize=12;" parent="08bzLbOTh_HCko4q4lLe-1" vertex="1">
                    <mxGeometry x="240" y="460" width="60" height="30" as="geometry"/>
                </mxCell>
                <mxCell id="08bzLbOTh_HCko4q4lLe-37" value="&lt;span style=&quot;font-size: 12px;&quot;&gt;add student to waitlist&lt;/span&gt;" style="ellipse;whiteSpace=wrap;html=1;fontSize=19;" parent="08bzLbOTh_HCko4q4lLe-1" vertex="1">
                    <mxGeometry x="369.5" y="520" width="130.5" height="60" as="geometry"/>
                </mxCell>
                <mxCell id="08bzLbOTh_HCko4q4lLe-38" value="NO" style="text;html=1;strokeColor=none;fillColor=none;align=center;verticalAlign=middle;whiteSpace=wrap;rounded=0;fontSize=12;" parent="08bzLbOTh_HCko4q4lLe-1" vertex="1">
                    <mxGeometry x="404.75" y="480" width="60" height="30" as="geometry"/>
                </mxCell>
                <mxCell id="08bzLbOTh_HCko4q4lLe-39" value="" style="edgeStyle=none;html=1;fontSize=12;entryX=0;entryY=0.5;entryDx=0;entryDy=0;" parent="08bzLbOTh_HCko4q4lLe-1" source="08bzLbOTh_HCko4q4lLe-40" target="08bzLbOTh_HCko4q4lLe-42" edge="1">
                    <mxGeometry relative="1" as="geometry"/>
                </mxCell>
                <mxCell id="08bzLbOTh_HCko4q4lLe-40" value="&lt;span style=&quot;font-size: 12px;&quot;&gt;generate fee invoice&lt;/span&gt;" style="ellipse;whiteSpace=wrap;html=1;fontSize=19;" parent="08bzLbOTh_HCko4q4lLe-1" vertex="1">
                    <mxGeometry x="240" y="570" width="125" height="60" as="geometry"/>
                </mxCell>
                <mxCell id="08bzLbOTh_HCko4q4lLe-41" value="" style="edgeStyle=none;html=1;fontSize=12;entryX=1;entryY=0.5;entryDx=0;entryDy=0;" parent="08bzLbOTh_HCko4q4lLe-1" source="08bzLbOTh_HCko4q4lLe-42" target="08bzLbOTh_HCko4q4lLe-22" edge="1">
                    <mxGeometry relative="1" as="geometry">
                        <mxPoint x="290" y="660" as="targetPoint"/>
                    </mxGeometry>
                </mxCell>
                <mxCell id="08bzLbOTh_HCko4q4lLe-42" value="&lt;span style=&quot;font-size: 12px;&quot;&gt;finance department issues invoice to student&amp;nbsp;&lt;/span&gt;" style="ellipse;whiteSpace=wrap;html=1;fontSize=19;" parent="08bzLbOTh_HCko4q4lLe-1" vertex="1">
                    <mxGeometry x="570" y="610" width="160" height="90" as="geometry"/>
                </mxCell>
                <mxCell id="08bzLbOTh_HCko4q4lLe-43" value="" style="edgeStyle=none;html=1;fontSize=12;entryX=0;entryY=0.5;entryDx=0;entryDy=0;" parent="08bzLbOTh_HCko4q4lLe-1" source="08bzLbOTh_HCko4q4lLe-44" target="08bzLbOTh_HCko4q4lLe-46" edge="1">
                    <mxGeometry relative="1" as="geometry">
                        <mxPoint x="560" y="740" as="targetPoint"/>
                    </mxGeometry>
                </mxCell>
                <mxCell id="08bzLbOTh_HCko4q4lLe-44" value="&lt;font style=&quot;font-size: 12px;&quot;&gt;prioritize maintenance requests&lt;/font&gt;" style="ellipse;whiteSpace=wrap;html=1;fontSize=19;" parent="08bzLbOTh_HCko4q4lLe-1" vertex="1">
                    <mxGeometry x="280" y="700" width="135.62" height="60" as="geometry"/>
                </mxCell>
                <mxCell id="08bzLbOTh_HCko4q4lLe-45" value="" style="edgeStyle=none;html=1;fontSize=12;" parent="08bzLbOTh_HCko4q4lLe-1" source="08bzLbOTh_HCko4q4lLe-46" edge="1">
                    <mxGeometry relative="1" as="geometry">
                        <mxPoint x="110" y="800" as="targetPoint"/>
                    </mxGeometry>
                </mxCell>
                <mxCell id="08bzLbOTh_HCko4q4lLe-46" value="&lt;span style=&quot;font-size: 12px;&quot;&gt;resolve the maintenance&amp;nbsp; issues by contact relevant stakeholders&lt;/span&gt;" style="ellipse;whiteSpace=wrap;html=1;fontSize=19;" parent="08bzLbOTh_HCko4q4lLe-1" vertex="1">
                    <mxGeometry x="560" y="710" width="160" height="90" as="geometry"/>
                </mxCell>
                <mxCell id="08bzLbOTh_HCko4q4lLe-47" value="&lt;font style=&quot;font-size: 12px;&quot;&gt;update student and room records&amp;nbsp;&lt;/font&gt;" style="ellipse;whiteSpace=wrap;html=1;fontSize=19;" parent="08bzLbOTh_HCko4q4lLe-1" vertex="1">
                    <mxGeometry x="295.25" y="810" width="120.37" height="60" as="geometry"/>
                </mxCell>
                <mxCell id="08bzLbOTh_HCko4q4lLe-48" value="" style="shape=sumEllipse;perimeter=ellipsePerimeter;whiteSpace=wrap;html=1;backgroundOutline=1;fontSize=12;" parent="08bzLbOTh_HCko4q4lLe-1" vertex="1">
                    <mxGeometry x="95" y="900" width="20" height="20" as="geometry"/>
                </mxCell>
                <mxCell id="xlekcr2ivGQt3DfnOvnY-95" value="" style="swimlane;startSize=40;fontSize=19;fillColor=#e51400;fontColor=#ffffff;strokeColor=#B20000;" parent="1" vertex="1">
                    <mxGeometry x="290" y="10" width="220" height="972.5" as="geometry"/>
                </mxCell>
                <mxCell id="xlekcr2ivGQt3DfnOvnY-96" value="Admin" style="text;html=1;strokeColor=none;fillColor=none;align=center;verticalAlign=middle;whiteSpace=wrap;rounded=0;fontSize=19;fontStyle=1" parent="xlekcr2ivGQt3DfnOvnY-95" vertex="1">
                    <mxGeometry x="70.78" y="-5" width="70" height="40" as="geometry"/>
                </mxCell>
                <mxCell id="xlekcr2ivGQt3DfnOvnY-141" value="&lt;b&gt;Fellow&lt;/b&gt;" style="text;html=1;strokeColor=none;fillColor=none;align=center;verticalAlign=middle;whiteSpace=wrap;rounded=0;fontSize=19;" parent="xlekcr2ivGQt3DfnOvnY-95" vertex="1">
                    <mxGeometry x="890" y="-2.5" width="140" height="35" as="geometry"/>
                </mxCell>
                <mxCell id="xlekcr2ivGQt3DfnOvnY-142" value="" style="swimlane;startSize=40;fontSize=19;fillColor=#e3c800;fontColor=#000000;strokeColor=#B09500;" parent="1" vertex="1">
                    <mxGeometry x="520" y="10" width="220" height="972.5" as="geometry"/>
                </mxCell>
                <mxCell id="xlekcr2ivGQt3DfnOvnY-143" value="Staff" style="text;html=1;strokeColor=none;fillColor=none;align=center;verticalAlign=middle;whiteSpace=wrap;rounded=0;fontSize=19;fontStyle=1;fontColor=#000000;" parent="xlekcr2ivGQt3DfnOvnY-142" vertex="1">
                    <mxGeometry x="70.78" y="-5" width="69.22" height="40" as="geometry"/>
                </mxCell>
                <mxCell id="xlekcr2ivGQt3DfnOvnY-144" value="&lt;b&gt;Staff&lt;/b&gt;" style="text;html=1;strokeColor=none;fillColor=none;align=center;verticalAlign=middle;whiteSpace=wrap;rounded=0;fontSize=19;" parent="xlekcr2ivGQt3DfnOvnY-142" vertex="1">
                    <mxGeometry x="570" y="-2.5" width="140" height="35" as="geometry"/>
                </mxCell>
                <mxCell id="xlekcr2ivGQt3DfnOvnY-145" value="&lt;b&gt;Fellow&lt;/b&gt;" style="text;html=1;strokeColor=none;fillColor=none;align=center;verticalAlign=middle;whiteSpace=wrap;rounded=0;fontSize=19;" parent="xlekcr2ivGQt3DfnOvnY-142" vertex="1">
                    <mxGeometry x="890" y="-2.5" width="140" height="35" as="geometry"/>
                </mxCell>
                <mxCell id="xlekcr2ivGQt3DfnOvnY-147" value="" style="swimlane;startSize=40;fontSize=19;fillColor=#6a00ff;fontColor=#ffffff;strokeColor=#3700CC;" parent="1" vertex="1">
                    <mxGeometry x="750" y="10" width="220" height="972.5" as="geometry"/>
                </mxCell>
                <mxCell id="xlekcr2ivGQt3DfnOvnY-148" value="Fellow" style="text;html=1;strokeColor=none;fillColor=none;align=center;verticalAlign=middle;whiteSpace=wrap;rounded=0;fontSize=19;fontStyle=1;fontColor=#FFFFFF;" parent="xlekcr2ivGQt3DfnOvnY-147" vertex="1">
                    <mxGeometry x="70.78" y="-5" width="69.22" height="40" as="geometry"/>
                </mxCell>
                <mxCell id="xlekcr2ivGQt3DfnOvnY-149" value="&lt;b&gt;Staff&lt;/b&gt;" style="text;html=1;strokeColor=none;fillColor=none;align=center;verticalAlign=middle;whiteSpace=wrap;rounded=0;fontSize=19;" parent="xlekcr2ivGQt3DfnOvnY-147" vertex="1">
                    <mxGeometry x="570" y="-2.5" width="140" height="35" as="geometry"/>
                </mxCell>
                <mxCell id="xlekcr2ivGQt3DfnOvnY-150" value="&lt;b&gt;Fellow&lt;/b&gt;" style="text;html=1;strokeColor=none;fillColor=none;align=center;verticalAlign=middle;whiteSpace=wrap;rounded=0;fontSize=19;" parent="xlekcr2ivGQt3DfnOvnY-147" vertex="1">
                    <mxGeometry x="890" y="-2.5" width="140" height="35" as="geometry"/>
                </mxCell>
            </root>
        </mxGraphModel>
    </diagram>
</mxfile>